<svg width="421" height="178" viewBox="0 0 421 178" fill="none" xmlns="http://www.w3.org/2000/svg">
<path d="M32.308 99.6C37.6107 99.6 42.23 100.475 46.166 102.224C50.102 103.973 53.136 106.488 55.268 109.768C57.4 113.048 58.466 116.875 58.466 121.248C58.466 125.621 57.4 129.448 55.268 132.728C53.136 136.008 50.102 138.523 46.166 140.272C42.23 142.021 37.6107 142.896 32.308 142.896H24.026V157H4.674V99.6H32.308ZM31.078 127.972C33.702 127.972 35.67 127.398 36.982 126.25C38.294 125.047 38.95 123.38 38.95 121.248C38.95 119.116 38.294 117.476 36.982 116.328C35.67 115.125 33.702 114.524 31.078 114.524H24.026V127.972H31.078ZM89.4127 142.568H84.1647V157H64.8127V99.6H92.4467C97.7493 99.6 102.369 100.475 106.305 102.224C110.241 103.973 113.275 106.488 115.407 109.768C117.539 113.048 118.605 116.875 118.605 121.248C118.605 125.348 117.675 128.929 115.817 131.99C113.958 135.051 111.279 137.484 107.781 139.288L119.835 157H99.1707L89.4127 142.568ZM99.0887 121.248C99.0887 119.116 98.4327 117.476 97.1207 116.328C95.8087 115.125 93.8407 114.524 91.2167 114.524H84.1647V127.972H91.2167C93.8407 127.972 95.8087 127.398 97.1207 126.25C98.4327 125.047 99.0887 123.38 99.0887 121.248ZM173.636 142.404V157H125.912V99.6H172.57V114.196H144.936V120.92H169.208V134.86H144.936V142.404H173.636ZM241.621 99.6L217.349 157H198.325L174.053 99.6H194.881L208.575 133.138L222.597 99.6H241.621ZM243.547 99.6H262.899V157H243.547V99.6ZM319.939 142.404V157H272.215V99.6H318.873V114.196H291.239V120.92H315.511V134.86H291.239V142.404H319.939ZM419.986 99.6L401.618 157H380.872L371.606 126.332L361.848 157H341.102L322.734 99.6H342.66L352.664 132.236L363.242 99.6H381.036L391.04 132.646L401.618 99.6H419.986Z" fill="white"/>
<path d="M119.319 26.281C116.981 26.281 114.721 26.281 112.383 26.281C112.383 32.1217 112.383 37.8846 112.383 43.6474C112.383 49.4103 112.383 55.1731 112.383 61.0139C114.721 61.0139 116.981 61.0139 119.319 61.0139C119.319 55.1731 119.319 49.4103 119.319 43.6474C119.319 37.8846 123.996 33.212 129.763 33.212C129.763 30.9536 129.763 28.6173 129.763 26.281C125.71 26.281 122.515 27.3713 119.319 29.7854C119.319 28.6173 119.319 27.4491 119.319 26.281ZM170.632 45.3607C170.71 44.8156 170.71 44.1926 170.71 43.6474C170.71 41.8563 170.476 40.0651 169.93 38.4297C167.748 31.4208 161.123 26.281 153.407 26.281C147.172 26.281 141.716 29.5518 138.676 34.458C137.897 35.704 137.274 37.0279 136.806 38.4297C136.572 39.2863 136.416 40.143 136.26 40.9996C136.104 41.8563 136.027 42.7129 136.027 43.6474C136.027 44.1926 136.104 44.8156 136.104 45.3607C136.962 54.1607 144.366 61.0139 153.407 61.0139C159.564 61.0139 165.02 57.743 168.06 52.8368L161.357 50.3448C159.486 52.6032 156.603 54.005 153.407 54.005C148.263 54.005 143.976 50.2669 143.119 45.3607H170.632ZM145.379 36.9501C147.328 34.6916 150.212 33.212 153.407 33.212C157.226 33.212 160.578 35.3147 162.37 38.4297H144.366C144.678 37.9624 144.99 37.4173 145.379 36.9501ZM197.758 57.2758C205.396 65.0634 218.568 59.69 218.568 48.7873C218.568 43.0244 218.568 37.2616 218.568 31.4987C218.568 29.7854 218.568 27.9943 218.568 26.281C216.307 26.281 213.969 26.281 211.631 26.281C211.631 27.9943 211.631 29.7854 211.631 31.4987C211.631 37.2616 211.631 43.0244 211.631 48.7873C211.631 51.6687 209.293 54.005 206.487 54.005C203.603 54.005 201.265 51.6687 201.265 48.7873C201.265 43.0244 201.265 37.2616 201.265 31.4987C201.265 29.7854 201.265 27.9943 201.265 26.281C198.927 26.281 196.589 26.281 194.329 26.281C194.329 27.9943 194.329 29.7854 194.329 31.4987C194.329 37.2616 194.329 43.0244 194.329 48.7873C194.329 51.6687 191.99 54.005 189.107 54.005C186.223 54.005 183.885 51.6687 183.885 48.7873C183.885 43.0244 183.885 37.2616 183.885 31.4987C183.885 29.7854 183.885 27.9943 183.885 26.281C181.546 26.281 179.286 26.281 176.948 26.281C176.948 27.9943 176.948 29.7854 176.948 31.4987C176.948 37.2616 176.948 43.0244 176.948 48.7873C176.948 59.69 190.198 65.0634 197.758 57.2758ZM231.732 61.0139V26.281H224.795V61.0139H231.732ZM244.872 60.936V41.7784C244.872 36.9501 248.769 33.1341 253.524 33.1341C258.356 33.1341 262.253 36.9501 262.253 41.7784V60.936H269.19V41.7784C269.19 33.1341 262.175 26.1252 253.524 26.1252C244.95 26.1252 237.936 33.1341 237.936 41.7784V60.936H244.872ZM277.38 51.3572C285.564 67.7112 310.271 61.8705 310.271 43.6474C310.271 32.1217 310.271 20.596 310.271 9.07031H303.334C303.334 15.9234 303.334 22.8544 303.334 29.7076C288.682 18.8049 269.197 35.0031 277.38 51.3572ZM282.524 43.6474C282.524 37.8846 287.123 33.212 292.89 33.212C298.658 33.212 303.334 37.8846 303.334 43.6474C303.334 49.3324 298.658 54.005 292.89 54.005C287.123 54.005 282.524 49.3324 282.524 43.6474Z" fill="white"/>
<path d="M193.361 16.8453V0.0376851H189.968V16.8453H193.361ZM208.483 4.86139C209.284 4.06999 210.084 3.27861 210.885 2.48722C205.547 -2.7887 196.396 0.942127 196.396 8.40377C196.396 15.9031 205.547 19.6339 210.885 14.358C210.084 13.5666 209.284 12.7753 208.483 11.9839C205.28 15.1494 199.789 12.8883 199.789 8.40377C199.789 3.91925 205.28 1.69583 208.483 4.86139ZM230.888 8.44148C230.888 3.8062 227.113 0.0376851 222.423 0.0376851C217.733 0.0376851 213.92 3.8062 213.92 8.44148C213.92 13.0767 217.733 16.8075 222.423 16.8075C227.113 16.8075 230.888 13.0767 230.888 8.44148ZM217.314 8.44148C217.314 5.65275 219.602 3.39166 222.423 3.39166C225.207 3.39166 227.494 5.65275 227.494 8.44148C227.494 11.2302 225.207 13.4536 222.423 13.4536C219.602 13.4536 217.314 11.2302 217.314 8.44148ZM237.333 0.0376851C236.189 0.0376851 235.083 0.0376851 233.94 0.0376851C233.94 2.86407 233.94 5.65275 233.94 8.44148C233.94 11.2302 233.94 14.0189 233.94 16.8453C235.083 16.8453 236.189 16.8453 237.333 16.8453C237.333 14.0189 237.333 11.2302 237.333 8.44148C237.333 5.65275 239.621 3.39166 242.442 3.39166C242.442 2.29879 242.442 1.16824 242.442 0.0376851C240.459 0.0376851 238.896 0.565275 237.333 1.73352C237.333 1.16824 237.333 0.60296 237.333 0.0376851ZM257.402 0V9.27056C257.402 11.607 255.496 13.4536 253.132 13.4536C250.806 13.4536 248.9 11.607 248.9 9.27056V0H245.506V9.27056C245.506 13.4536 248.938 16.8453 253.132 16.8453C257.364 16.8453 260.796 13.4536 260.796 9.27056V0H257.402ZM274.03 1.80888C270.331 -1.92194 263.849 0.678334 263.849 5.91656C263.849 8.74295 263.849 14.0189 263.849 16.8075C264.993 16.8075 266.099 16.8075 267.243 16.8075C267.243 14.0189 267.243 8.74295 267.243 5.91656C267.243 4.55988 268.387 3.42935 269.797 3.42935C271.208 3.42935 272.352 4.55988 272.352 5.91656C272.352 8.74295 272.352 14.0189 272.352 16.8075C272.924 16.8075 273.458 16.8075 274.03 16.8075C274.602 16.8075 275.174 16.8075 275.746 16.8075C275.746 14.0189 275.746 8.74295 275.746 5.91656C275.746 4.55988 276.889 3.42935 278.3 3.42935C279.673 3.42935 280.817 4.55988 280.817 5.91656C280.817 8.74295 280.817 14.0189 280.817 16.8075C281.961 16.8075 283.104 16.8075 284.21 16.8075C284.21 14.0189 284.21 8.74295 284.21 5.91656C284.21 0.678334 277.766 -1.92194 274.03 1.80888Z" fill="white"/>
<path d="M148.706 1.77917C145.006 -1.96844 138.521 0.643528 138.521 5.9053C138.521 8.74441 138.521 14.044 138.521 16.8453C139.666 16.8453 140.772 16.8453 141.916 16.8453C141.916 14.044 141.916 8.74441 141.916 5.9053C141.916 4.54252 143.061 3.40691 144.472 3.40691C145.883 3.40691 147.028 4.54252 147.028 5.9053C147.028 8.74441 147.028 14.044 147.028 16.8453C147.6 16.8453 148.134 16.8453 148.706 16.8453C149.278 16.8453 149.85 16.8453 150.423 16.8453C150.423 14.044 150.423 8.74441 150.423 5.9053C150.423 4.54252 151.567 3.40691 152.978 3.40691C154.351 3.40691 155.495 4.54252 155.495 5.9053C155.495 8.74441 155.495 14.044 155.495 16.8453C156.64 16.8453 157.784 16.8453 158.89 16.8453C158.89 14.044 158.89 8.74441 158.89 5.9053C158.89 0.643528 152.444 -1.96844 148.706 1.77917ZM179.298 3.36905H186.926V0H179.298C176.475 0 174.186 2.27127 174.186 5.0725C174.186 7.53306 175.941 9.57721 178.306 10.0315C178.611 10.1072 178.954 10.1072 179.298 10.1072H183.036C183.989 10.1072 184.752 10.8643 184.752 11.8106C184.752 12.7191 183.989 13.4762 183.036 13.4762H175.406V16.8453H183.036C185.858 16.8453 188.147 14.6118 188.147 11.8106C188.147 9.35005 186.392 7.30591 184.027 6.85165C183.722 6.77598 183.379 6.7381 183.036 6.7381H179.298C178.344 6.7381 177.581 5.98102 177.581 5.0725C177.581 4.12615 178.344 3.36905 179.298 3.36905Z" fill="#B71C1C"/>
<path d="M171.052 0V9.27056C171.052 11.607 169.122 13.4536 166.729 13.4536C164.375 13.4536 162.444 11.607 162.444 9.27056V0H159.009V9.27056C159.009 13.4536 162.483 16.8453 166.729 16.8453C171.014 16.8453 174.488 13.4536 174.488 9.27056V0H171.052Z" fill="white"/>
</svg>
