<svg width="495" height="1113" viewBox="0 0 495 1113" fill="none" xmlns="http://www.w3.org/2000/svg">
<path d="M33.2155 118.631C39.5237 118.631 45.0188 119.673 49.7011 121.756C54.3834 123.839 57.9927 126.835 60.529 130.742C63.0652 134.649 64.3333 139.207 64.3333 144.415C64.3333 149.624 63.0652 154.182 60.529 158.089C57.9927 161.996 54.3834 164.991 49.7011 167.075C45.0188 169.158 39.5237 170.2 33.2155 170.2H23.3631V186.999H0.341797V118.631H33.2155ZM31.7523 152.424C34.8738 152.424 37.215 151.741 38.7757 150.373C40.3365 148.94 41.1169 146.955 41.1169 144.415C41.1169 141.876 40.3365 139.923 38.7757 138.555C37.215 137.122 34.8738 136.407 31.7523 136.407H23.3631V152.424H31.7523ZM101.148 169.809H94.9048V186.999H71.8835V118.631H104.757C111.065 118.631 116.561 119.673 121.243 121.756C125.925 123.839 129.535 126.835 132.071 130.742C134.607 134.649 135.875 139.207 135.875 144.415C135.875 149.299 134.769 153.564 132.559 157.21C130.347 160.856 127.16 163.754 122.999 165.903L137.339 186.999H112.756L101.148 169.809ZM112.659 144.415C112.659 141.876 111.878 139.923 110.317 138.555C108.757 137.122 106.415 136.407 103.294 136.407H94.9048V152.424H103.294C106.415 152.424 108.757 151.741 110.317 150.373C111.878 148.94 112.659 146.955 112.659 144.415ZM201.341 169.614V186.999H144.568V118.631H200.073V136.016H167.199V144.025H196.073V160.628H167.199V169.614H201.341ZM282.217 118.631L253.342 186.999H230.711L201.837 118.631H226.614L242.905 158.577L259.585 118.631H282.217ZM284.508 118.631H307.529V186.999H284.508V118.631ZM375.384 169.614V186.999H318.611V118.631H374.116V136.016H341.243V144.025H370.117V160.628H341.243V169.614H375.384ZM494.401 118.631L472.551 186.999H447.871L436.848 150.471L425.24 186.999H400.56L378.709 118.631H402.414L414.315 157.503L426.898 118.631H448.066L459.967 157.991L472.551 118.631H494.401Z" fill="white"/>
<path d="M136.725 31.3041C133.943 31.3041 131.255 31.3041 128.474 31.3041C128.474 38.2608 128.474 45.1249 128.474 51.9889C128.474 58.853 128.474 65.717 128.474 72.6738C131.255 72.6738 133.943 72.6738 136.725 72.6738C136.725 65.717 136.725 58.853 136.725 51.9889C136.725 45.1249 142.289 39.5595 149.149 39.5595C149.149 36.8695 149.149 34.0868 149.149 31.3041C144.328 31.3041 140.527 32.6027 136.725 35.4781C136.725 34.0868 136.725 32.6954 136.725 31.3041ZM197.767 54.0296C197.86 53.3803 197.86 52.6383 197.86 51.9889C197.86 49.8555 197.582 47.7221 196.932 45.7742C194.336 37.426 186.455 31.3041 177.276 31.3041C169.859 31.3041 163.368 35.1999 159.752 41.0435C158.825 42.5276 158.084 44.1045 157.527 45.7742C157.249 46.7944 157.064 47.8149 156.878 48.8351C156.692 49.8555 156.601 50.8758 156.601 51.9889C156.601 52.6383 156.692 53.3803 156.692 54.0296C157.713 64.5111 166.521 72.6738 177.276 72.6738C184.601 72.6738 191.091 68.7779 194.708 62.9342L186.734 59.966C184.508 62.656 181.078 64.3256 177.276 64.3256C171.157 64.3256 166.057 59.8733 165.038 54.0296H197.767ZM167.726 44.0118C170.045 41.3218 173.475 39.5595 177.276 39.5595C181.819 39.5595 185.807 42.0639 187.939 45.7742H166.521C166.892 45.2176 167.263 44.5683 167.726 44.0118ZM230.037 68.2214C239.123 77.4971 254.792 71.097 254.792 58.1109C254.792 51.2468 254.792 44.3829 254.792 37.5188C254.792 35.4781 254.792 33.3447 254.792 31.3041C252.103 31.3041 249.321 31.3041 246.54 31.3041C246.54 33.3447 246.54 35.4781 246.54 37.5188C246.54 44.3829 246.54 51.2468 246.54 58.1109C246.54 61.5429 243.759 64.3256 240.421 64.3256C236.99 64.3256 234.209 61.5429 234.209 58.1109C234.209 51.2468 234.209 44.3829 234.209 37.5188C234.209 35.4781 234.209 33.3447 234.209 31.3041C231.427 31.3041 228.646 31.3041 225.957 31.3041C225.957 33.3447 225.957 35.4781 225.957 37.5188C225.957 44.3829 225.957 51.2468 225.957 58.1109C225.957 61.5429 223.175 64.3256 219.745 64.3256C216.314 64.3256 213.533 61.5429 213.533 58.1109C213.533 51.2468 213.533 44.3829 213.533 37.5188C213.533 35.4781 213.533 33.3447 213.533 31.3041C210.751 31.3041 208.062 31.3041 205.281 31.3041C205.281 33.3447 205.281 35.4781 205.281 37.5188C205.281 44.3829 205.281 51.2468 205.281 58.1109C205.281 71.097 221.043 77.4971 230.037 68.2214ZM270.453 72.6738V31.3041H262.2V72.6738H270.453ZM286.084 72.581V49.7627C286.084 44.0118 290.72 39.4667 296.377 39.4667C302.125 39.4667 306.761 44.0118 306.761 49.7627V72.581H315.013V49.7627C315.013 39.4667 306.668 31.1185 296.377 31.1185C286.177 31.1185 277.833 39.4667 277.833 49.7627V72.581H286.084ZM324.756 61.1719C334.492 80.6509 363.883 73.6941 363.883 51.9889C363.883 38.2608 363.883 24.5327 363.883 10.8047H355.631C355.631 18.9673 355.631 27.2227 355.631 35.3854C338.201 22.3994 315.021 41.6928 324.756 61.1719ZM330.875 51.9889C330.875 45.1249 336.346 39.5595 343.207 39.5595C350.068 39.5595 355.631 45.1249 355.631 51.9889C355.631 58.7602 350.068 64.3256 343.207 64.3256C336.346 64.3256 330.875 58.7602 330.875 51.9889Z" fill="white"/>
<path d="M224.806 20.0642V0.0448861H220.77V20.0642H224.806ZM242.795 5.79032C243.748 4.8477 244.7 3.9051 245.653 2.96249C239.302 -3.32157 228.416 1.12215 228.416 10.0096C228.416 18.9419 239.302 23.3856 245.653 17.1016C244.7 16.1589 243.748 15.2164 242.795 14.2738C238.985 18.0442 232.453 15.351 232.453 10.0096C232.453 4.66815 238.985 2.01987 242.795 5.79032ZM269.448 10.0545C269.448 4.5335 264.958 0.0448861 259.378 0.0448861C253.799 0.0448861 249.263 4.5335 249.263 10.0545C249.263 15.5754 253.799 20.0191 259.378 20.0191C264.958 20.0191 269.448 15.5754 269.448 10.0545ZM253.301 10.0545C253.301 6.7329 256.022 4.03975 259.378 4.03975C262.69 4.03975 265.411 6.7329 265.411 10.0545C265.411 13.3761 262.69 16.0244 259.378 16.0244C256.022 16.0244 253.301 13.3761 253.301 10.0545ZM277.115 0.0448861C275.755 0.0448861 274.439 0.0448861 273.079 0.0448861C273.079 3.41135 273.079 6.7329 273.079 10.0545C273.079 13.3761 273.079 16.6977 273.079 20.0642C274.439 20.0642 275.755 20.0642 277.115 20.0642C277.115 16.6977 277.115 13.3761 277.115 10.0545C277.115 6.7329 279.837 4.03975 283.193 4.03975C283.193 2.73805 283.193 1.39147 283.193 0.0448861C280.834 0.0448861 278.975 0.67329 277.115 2.06477C277.115 1.39147 277.115 0.718176 277.115 0.0448861ZM300.99 0V11.042C300.99 13.8249 298.722 16.0244 295.91 16.0244C293.143 16.0244 290.876 13.8249 290.876 11.042V0H286.838V11.042C286.838 16.0244 290.921 20.0642 295.91 20.0642C300.945 20.0642 305.027 16.0244 305.027 11.042V0H300.99ZM320.771 2.15453C316.37 -2.28919 308.659 0.807953 308.659 7.04712C308.659 10.4136 308.659 16.6977 308.659 20.0191C310.02 20.0191 311.336 20.0191 312.697 20.0191C312.697 16.6977 312.697 10.4136 312.697 7.04712C312.697 5.4312 314.058 4.08464 315.735 4.08464C317.413 4.08464 318.774 5.4312 318.774 7.04712C318.774 10.4136 318.774 16.6977 318.774 20.0191C319.455 20.0191 320.09 20.0191 320.771 20.0191C321.451 20.0191 322.131 20.0191 322.812 20.0191C322.812 16.6977 322.812 10.4136 322.812 7.04712C322.812 5.4312 324.172 4.08464 325.85 4.08464C327.484 4.08464 328.844 5.4312 328.844 7.04712C328.844 10.4136 328.844 16.6977 328.844 20.0191C330.205 20.0191 331.565 20.0191 332.881 20.0191C332.881 16.6977 332.881 10.4136 332.881 7.04712C332.881 0.807953 325.215 -2.28919 320.771 2.15453Z" fill="white"/>
<path d="M171.684 2.11914C167.282 -2.34458 159.567 0.766495 159.567 7.0337C159.567 10.4153 159.567 16.7276 159.567 20.0642C160.929 20.0642 162.245 20.0642 163.606 20.0642C163.606 16.7276 163.606 10.4153 163.606 7.0337C163.606 5.41052 164.968 4.05791 166.647 4.05791C168.325 4.05791 169.687 5.41052 169.687 7.0337C169.687 10.4153 169.687 16.7276 169.687 20.0642C170.368 20.0642 171.003 20.0642 171.684 20.0642C172.364 20.0642 173.044 20.0642 173.726 20.0642C173.726 16.7276 173.726 10.4153 173.726 7.0337C173.726 5.41052 175.087 4.05791 176.766 4.05791C178.399 4.05791 179.76 5.41052 179.76 7.0337C179.76 10.4153 179.76 16.7276 179.76 20.0642C181.122 20.0642 182.483 20.0642 183.799 20.0642C183.799 16.7276 183.799 10.4153 183.799 7.0337C183.799 0.766495 176.13 -2.34458 171.684 2.11914ZM208.076 4.01282H217.151V0H208.076C204.718 0 201.995 2.70527 201.995 6.04177C201.995 8.9725 204.083 11.4073 206.896 11.9484C207.259 12.0385 207.667 12.0385 208.076 12.0385H212.523C213.657 12.0385 214.564 12.9403 214.564 14.0674C214.564 15.1495 213.657 16.0513 212.523 16.0513H203.446V20.0642H212.523C215.88 20.0642 218.603 17.4039 218.603 14.0674C218.603 11.1367 216.515 8.70195 213.702 8.16089C213.339 8.07076 212.931 8.02564 212.523 8.02564H208.076C206.941 8.02564 206.034 7.12389 206.034 6.04177C206.034 4.91459 206.941 4.01282 208.076 4.01282Z" fill="#B71C1C"/>
<path d="M198.267 0V11.042C198.267 13.8249 195.971 16.0244 193.124 16.0244C190.324 16.0244 188.027 13.8249 188.027 11.042V0H183.94V11.042C183.94 16.0244 188.073 20.0642 193.124 20.0642C198.222 20.0642 202.354 16.0244 202.354 11.042V0H198.267Z" fill="white"/>
<path d="M33.2155 581.631C39.5237 581.631 45.0188 582.673 49.7011 584.756C54.3834 586.839 57.9927 589.835 60.529 593.742C63.0652 597.649 64.3333 602.207 64.3333 607.415C64.3333 612.624 63.0652 617.182 60.529 621.089C57.9927 624.996 54.3834 627.991 49.7011 630.075C45.0188 632.158 39.5237 633.2 33.2155 633.2H23.3631V649.999H0.341797V581.631H33.2155ZM31.7523 615.424C34.8738 615.424 37.215 614.741 38.7757 613.373C40.3365 611.94 41.1169 609.955 41.1169 607.415C41.1169 604.876 40.3365 602.923 38.7757 601.555C37.215 600.122 34.8738 599.407 31.7523 599.407H23.3631V615.424H31.7523ZM101.148 632.809H94.9048V649.999H71.8835V581.631H104.757C111.065 581.631 116.561 582.673 121.243 584.756C125.925 586.839 129.535 589.835 132.071 593.742C134.607 597.649 135.875 602.207 135.875 607.415C135.875 612.299 134.769 616.564 132.559 620.21C130.347 623.856 127.16 626.754 122.999 628.903L137.339 649.999H112.756L101.148 632.809ZM112.659 607.415C112.659 604.876 111.878 602.923 110.317 601.555C108.757 600.122 106.415 599.407 103.294 599.407H94.9048V615.424H103.294C106.415 615.424 108.757 614.741 110.317 613.373C111.878 611.94 112.659 609.955 112.659 607.415ZM201.341 632.614V649.999H144.568V581.631H200.073V599.016H167.199V607.025H196.073V623.628H167.199V632.614H201.341ZM282.217 581.631L253.342 649.999H230.711L201.837 581.631H226.614L242.905 621.577L259.585 581.631H282.217ZM284.508 581.631H307.529V649.999H284.508V581.631ZM375.384 632.614V649.999H318.611V581.631H374.116V599.016H341.243V607.025H370.117V623.628H341.243V632.614H375.384ZM494.401 581.631L472.551 649.999H447.871L436.848 613.471L425.24 649.999H400.56L378.709 581.631H402.414L414.315 620.503L426.898 581.631H448.066L459.967 620.991L472.551 581.631H494.401Z" fill="white"/>
<path d="M136.725 494.304C133.943 494.304 131.255 494.304 128.474 494.304C128.474 501.261 128.474 508.125 128.474 514.989C128.474 521.853 128.474 528.717 128.474 535.674C131.255 535.674 133.943 535.674 136.725 535.674C136.725 528.717 136.725 521.853 136.725 514.989C136.725 508.125 142.289 502.559 149.149 502.559C149.149 499.87 149.149 497.087 149.149 494.304C144.328 494.304 140.527 495.603 136.725 498.478C136.725 497.087 136.725 495.695 136.725 494.304ZM197.767 517.03C197.86 516.38 197.86 515.638 197.86 514.989C197.86 512.856 197.582 510.722 196.932 508.774C194.336 500.426 186.455 494.304 177.276 494.304C169.859 494.304 163.368 498.2 159.752 504.044C158.825 505.528 158.084 507.105 157.527 508.774C157.249 509.794 157.064 510.815 156.878 511.835C156.692 512.856 156.601 513.876 156.601 514.989C156.601 515.638 156.692 516.38 156.692 517.03C157.713 527.511 166.521 535.674 177.276 535.674C184.601 535.674 191.091 531.778 194.708 525.934L186.734 522.966C184.508 525.656 181.078 527.326 177.276 527.326C171.157 527.326 166.057 522.873 165.038 517.03H197.767ZM167.726 507.012C170.045 504.322 173.475 502.559 177.276 502.559C181.819 502.559 185.807 505.064 187.939 508.774H166.521C166.892 508.218 167.263 507.568 167.726 507.012ZM230.037 531.221C239.123 540.497 254.792 534.097 254.792 521.111C254.792 514.247 254.792 507.383 254.792 500.519C254.792 498.478 254.792 496.345 254.792 494.304C252.103 494.304 249.321 494.304 246.54 494.304C246.54 496.345 246.54 498.478 246.54 500.519C246.54 507.383 246.54 514.247 246.54 521.111C246.54 524.543 243.759 527.326 240.421 527.326C236.99 527.326 234.209 524.543 234.209 521.111C234.209 514.247 234.209 507.383 234.209 500.519C234.209 498.478 234.209 496.345 234.209 494.304C231.427 494.304 228.646 494.304 225.957 494.304C225.957 496.345 225.957 498.478 225.957 500.519C225.957 507.383 225.957 514.247 225.957 521.111C225.957 524.543 223.175 527.326 219.745 527.326C216.314 527.326 213.533 524.543 213.533 521.111C213.533 514.247 213.533 507.383 213.533 500.519C213.533 498.478 213.533 496.345 213.533 494.304C210.751 494.304 208.062 494.304 205.281 494.304C205.281 496.345 205.281 498.478 205.281 500.519C205.281 507.383 205.281 514.247 205.281 521.111C205.281 534.097 221.043 540.497 230.037 531.221ZM270.453 535.674V494.304H262.2V535.674H270.453ZM286.084 535.581V512.763C286.084 507.012 290.72 502.467 296.377 502.467C302.125 502.467 306.761 507.012 306.761 512.763V535.581H315.013V512.763C315.013 502.467 306.668 494.118 296.377 494.118C286.177 494.118 277.833 502.467 277.833 512.763V535.581H286.084ZM324.756 524.172C334.492 543.651 363.883 536.694 363.883 514.989C363.883 501.261 363.883 487.533 363.883 473.805H355.631C355.631 481.967 355.631 490.223 355.631 498.385C338.201 485.399 315.021 504.693 324.756 524.172ZM330.875 514.989C330.875 508.125 336.346 502.559 343.207 502.559C350.068 502.559 355.631 508.125 355.631 514.989C355.631 521.76 350.068 527.326 343.207 527.326C336.346 527.326 330.875 521.76 330.875 514.989Z" fill="white"/>
<path d="M224.806 483.064V463.045H220.77V483.064H224.806ZM242.795 468.79C243.748 467.848 244.7 466.905 245.653 465.962C239.302 459.678 228.416 464.122 228.416 473.01C228.416 481.942 239.302 486.386 245.653 480.102C244.7 479.159 243.748 478.216 242.795 477.274C238.985 481.044 232.453 478.351 232.453 473.01C232.453 467.668 238.985 465.02 242.795 468.79ZM269.448 473.055C269.448 467.534 264.958 463.045 259.378 463.045C253.799 463.045 249.263 467.534 249.263 473.055C249.263 478.575 253.799 483.019 259.378 483.019C264.958 483.019 269.448 478.575 269.448 473.055ZM253.301 473.055C253.301 469.733 256.022 467.04 259.378 467.04C262.69 467.04 265.411 469.733 265.411 473.055C265.411 476.376 262.69 479.024 259.378 479.024C256.022 479.024 253.301 476.376 253.301 473.055ZM277.115 463.045C275.755 463.045 274.439 463.045 273.079 463.045C273.079 466.411 273.079 469.733 273.079 473.055C273.079 476.376 273.079 479.698 273.079 483.064C274.439 483.064 275.755 483.064 277.115 483.064C277.115 479.698 277.115 476.376 277.115 473.055C277.115 469.733 279.837 467.04 283.193 467.04C283.193 465.738 283.193 464.391 283.193 463.045C280.834 463.045 278.975 463.673 277.115 465.065C277.115 464.391 277.115 463.718 277.115 463.045ZM300.99 463V474.042C300.99 476.825 298.722 479.024 295.91 479.024C293.143 479.024 290.876 476.825 290.876 474.042V463H286.838V474.042C286.838 479.024 290.921 483.064 295.91 483.064C300.945 483.064 305.027 479.024 305.027 474.042V463H300.99ZM320.771 465.155C316.37 460.711 308.659 463.808 308.659 470.047C308.659 473.414 308.659 479.698 308.659 483.019C310.02 483.019 311.336 483.019 312.697 483.019C312.697 479.698 312.697 473.414 312.697 470.047C312.697 468.431 314.058 467.085 315.735 467.085C317.413 467.085 318.774 468.431 318.774 470.047C318.774 473.414 318.774 479.698 318.774 483.019C319.455 483.019 320.09 483.019 320.771 483.019C321.451 483.019 322.131 483.019 322.812 483.019C322.812 479.698 322.812 473.414 322.812 470.047C322.812 468.431 324.172 467.085 325.85 467.085C327.484 467.085 328.844 468.431 328.844 470.047C328.844 473.414 328.844 479.698 328.844 483.019C330.205 483.019 331.565 483.019 332.881 483.019C332.881 479.698 332.881 473.414 332.881 470.047C332.881 463.808 325.215 460.711 320.771 465.155Z" fill="white"/>
<path d="M171.684 465.119C167.282 460.655 159.567 463.766 159.567 470.034C159.567 473.415 159.567 479.728 159.567 483.064C160.929 483.064 162.245 483.064 163.606 483.064C163.606 479.728 163.606 473.415 163.606 470.034C163.606 468.411 164.968 467.058 166.647 467.058C168.325 467.058 169.687 468.411 169.687 470.034C169.687 473.415 169.687 479.728 169.687 483.064C170.368 483.064 171.003 483.064 171.684 483.064C172.364 483.064 173.044 483.064 173.726 483.064C173.726 479.728 173.726 473.415 173.726 470.034C173.726 468.411 175.087 467.058 176.766 467.058C178.399 467.058 179.76 468.411 179.76 470.034C179.76 473.415 179.76 479.728 179.76 483.064C181.122 483.064 182.483 483.064 183.799 483.064C183.799 479.728 183.799 473.415 183.799 470.034C183.799 463.766 176.13 460.655 171.684 465.119ZM208.076 467.013H217.151V463H208.076C204.718 463 201.995 465.705 201.995 469.042C201.995 471.973 204.083 474.407 206.896 474.948C207.259 475.039 207.667 475.039 208.076 475.039H212.523C213.657 475.039 214.564 475.94 214.564 477.067C214.564 478.15 213.657 479.051 212.523 479.051H203.446V483.064H212.523C215.88 483.064 218.603 480.404 218.603 477.067C218.603 474.137 216.515 471.702 213.702 471.161C213.339 471.071 212.931 471.026 212.523 471.026H208.076C206.941 471.026 206.034 470.124 206.034 469.042C206.034 467.915 206.941 467.013 208.076 467.013Z" fill="#B71C1C"/>
<path d="M198.267 463V474.042C198.267 476.825 195.971 479.024 193.124 479.024C190.324 479.024 188.027 476.825 188.027 474.042V463H183.94V474.042C183.94 479.024 188.073 483.064 193.124 483.064C198.222 483.064 202.354 479.024 202.354 474.042V463H198.267Z" fill="white"/>
<path d="M33.2155 1044.63C39.5237 1044.63 45.0188 1045.67 49.7011 1047.76C54.3834 1049.84 57.9927 1052.84 60.529 1056.74C63.0652 1060.65 64.3333 1065.21 64.3333 1070.42C64.3333 1075.62 63.0652 1080.18 60.529 1084.09C57.9927 1088 54.3834 1090.99 49.7011 1093.07C45.0188 1095.16 39.5237 1096.2 33.2155 1096.2H23.3631V1113H0.341797V1044.63H33.2155ZM31.7523 1078.42C34.8738 1078.42 37.215 1077.74 38.7757 1076.37C40.3365 1074.94 41.1169 1072.95 41.1169 1070.42C41.1169 1067.88 40.3365 1065.92 38.7757 1064.56C37.215 1063.12 34.8738 1062.41 31.7523 1062.41H23.3631V1078.42H31.7523ZM101.148 1095.81H94.9048V1113H71.8835V1044.63H104.757C111.065 1044.63 116.561 1045.67 121.243 1047.76C125.925 1049.84 129.535 1052.84 132.071 1056.74C134.607 1060.65 135.875 1065.21 135.875 1070.42C135.875 1075.3 134.769 1079.56 132.559 1083.21C130.347 1086.86 127.16 1089.75 122.999 1091.9L137.339 1113H112.756L101.148 1095.81ZM112.659 1070.42C112.659 1067.88 111.878 1065.92 110.317 1064.56C108.757 1063.12 106.415 1062.41 103.294 1062.41H94.9048V1078.42H103.294C106.415 1078.42 108.757 1077.74 110.317 1076.37C111.878 1074.94 112.659 1072.95 112.659 1070.42ZM201.341 1095.61V1113H144.568V1044.63H200.073V1062.02H167.199V1070.02H196.073V1086.63H167.199V1095.61H201.341ZM282.217 1044.63L253.342 1113H230.711L201.837 1044.63H226.614L242.905 1084.58L259.585 1044.63H282.217ZM284.508 1044.63H307.529V1113H284.508V1044.63ZM375.384 1095.61V1113H318.611V1044.63H374.116V1062.02H341.243V1070.02H370.117V1086.63H341.243V1095.61H375.384ZM494.401 1044.63L472.551 1113H447.871L436.848 1076.47L425.24 1113H400.56L378.709 1044.63H402.414L414.315 1083.5L426.898 1044.63H448.066L459.967 1083.99L472.551 1044.63H494.401Z" fill="white"/>
<path d="M136.725 957.304C133.943 957.304 131.255 957.304 128.474 957.304C128.474 964.261 128.474 971.125 128.474 977.989C128.474 984.853 128.474 991.717 128.474 998.674C131.255 998.674 133.943 998.674 136.725 998.674C136.725 991.717 136.725 984.853 136.725 977.989C136.725 971.125 142.289 965.559 149.149 965.559C149.149 962.87 149.149 960.087 149.149 957.304C144.328 957.304 140.527 958.603 136.725 961.478C136.725 960.087 136.725 958.695 136.725 957.304ZM197.767 980.03C197.86 979.38 197.86 978.638 197.86 977.989C197.86 975.856 197.582 973.722 196.932 971.774C194.336 963.426 186.455 957.304 177.276 957.304C169.859 957.304 163.368 961.2 159.752 967.044C158.825 968.528 158.084 970.105 157.527 971.774C157.249 972.794 157.064 973.815 156.878 974.835C156.692 975.856 156.601 976.876 156.601 977.989C156.601 978.638 156.692 979.38 156.692 980.03C157.713 990.511 166.521 998.674 177.276 998.674C184.601 998.674 191.091 994.778 194.708 988.934L186.734 985.966C184.508 988.656 181.078 990.326 177.276 990.326C171.157 990.326 166.057 985.873 165.038 980.03H197.767ZM167.726 970.012C170.045 967.322 173.475 965.559 177.276 965.559C181.819 965.559 185.807 968.064 187.939 971.774H166.521C166.892 971.218 167.263 970.568 167.726 970.012ZM230.037 994.221C239.123 1003.5 254.792 997.097 254.792 984.111C254.792 977.247 254.792 970.383 254.792 963.519C254.792 961.478 254.792 959.345 254.792 957.304C252.103 957.304 249.321 957.304 246.54 957.304C246.54 959.345 246.54 961.478 246.54 963.519C246.54 970.383 246.54 977.247 246.54 984.111C246.54 987.543 243.759 990.326 240.421 990.326C236.99 990.326 234.209 987.543 234.209 984.111C234.209 977.247 234.209 970.383 234.209 963.519C234.209 961.478 234.209 959.345 234.209 957.304C231.427 957.304 228.646 957.304 225.957 957.304C225.957 959.345 225.957 961.478 225.957 963.519C225.957 970.383 225.957 977.247 225.957 984.111C225.957 987.543 223.175 990.326 219.745 990.326C216.314 990.326 213.533 987.543 213.533 984.111C213.533 977.247 213.533 970.383 213.533 963.519C213.533 961.478 213.533 959.345 213.533 957.304C210.751 957.304 208.062 957.304 205.281 957.304C205.281 959.345 205.281 961.478 205.281 963.519C205.281 970.383 205.281 977.247 205.281 984.111C205.281 997.097 221.043 1003.5 230.037 994.221ZM270.453 998.674V957.304H262.2V998.674H270.453ZM286.084 998.581V975.763C286.084 970.012 290.72 965.467 296.377 965.467C302.125 965.467 306.761 970.012 306.761 975.763V998.581H315.013V975.763C315.013 965.467 306.668 957.118 296.377 957.118C286.177 957.118 277.833 965.467 277.833 975.763V998.581H286.084ZM324.756 987.172C334.492 1006.65 363.883 999.694 363.883 977.989C363.883 964.261 363.883 950.533 363.883 936.805H355.631C355.631 944.967 355.631 953.223 355.631 961.385C338.201 948.399 315.021 967.693 324.756 987.172ZM330.875 977.989C330.875 971.125 336.346 965.559 343.207 965.559C350.068 965.559 355.631 971.125 355.631 977.989C355.631 984.76 350.068 990.326 343.207 990.326C336.346 990.326 330.875 984.76 330.875 977.989Z" fill="white"/>
<path d="M224.806 946.064V926.045H220.77V946.064H224.806ZM242.795 931.79C243.748 930.848 244.7 929.905 245.653 928.962C239.302 922.678 228.416 927.122 228.416 936.01C228.416 944.942 239.302 949.386 245.653 943.102C244.7 942.159 243.748 941.216 242.795 940.274C238.985 944.044 232.453 941.351 232.453 936.01C232.453 930.668 238.985 928.02 242.795 931.79ZM269.448 936.055C269.448 930.534 264.958 926.045 259.378 926.045C253.799 926.045 249.263 930.534 249.263 936.055C249.263 941.575 253.799 946.019 259.378 946.019C264.958 946.019 269.448 941.575 269.448 936.055ZM253.301 936.055C253.301 932.733 256.022 930.04 259.378 930.04C262.69 930.04 265.411 932.733 265.411 936.055C265.411 939.376 262.69 942.024 259.378 942.024C256.022 942.024 253.301 939.376 253.301 936.055ZM277.115 926.045C275.755 926.045 274.439 926.045 273.079 926.045C273.079 929.411 273.079 932.733 273.079 936.055C273.079 939.376 273.079 942.698 273.079 946.064C274.439 946.064 275.755 946.064 277.115 946.064C277.115 942.698 277.115 939.376 277.115 936.055C277.115 932.733 279.837 930.04 283.193 930.04C283.193 928.738 283.193 927.391 283.193 926.045C280.834 926.045 278.975 926.673 277.115 928.065C277.115 927.391 277.115 926.718 277.115 926.045ZM300.99 926V937.042C300.99 939.825 298.722 942.024 295.91 942.024C293.143 942.024 290.876 939.825 290.876 937.042V926H286.838V937.042C286.838 942.024 290.921 946.064 295.91 946.064C300.945 946.064 305.027 942.024 305.027 937.042V926H300.99ZM320.771 928.155C316.37 923.711 308.659 926.808 308.659 933.047C308.659 936.414 308.659 942.698 308.659 946.019C310.02 946.019 311.336 946.019 312.697 946.019C312.697 942.698 312.697 936.414 312.697 933.047C312.697 931.431 314.058 930.085 315.735 930.085C317.413 930.085 318.774 931.431 318.774 933.047C318.774 936.414 318.774 942.698 318.774 946.019C319.455 946.019 320.09 946.019 320.771 946.019C321.451 946.019 322.131 946.019 322.812 946.019C322.812 942.698 322.812 936.414 322.812 933.047C322.812 931.431 324.172 930.085 325.85 930.085C327.484 930.085 328.844 931.431 328.844 933.047C328.844 936.414 328.844 942.698 328.844 946.019C330.205 946.019 331.565 946.019 332.881 946.019C332.881 942.698 332.881 936.414 332.881 933.047C332.881 926.808 325.215 923.711 320.771 928.155Z" fill="white"/>
<path d="M171.684 928.119C167.282 923.655 159.567 926.766 159.567 933.034C159.567 936.415 159.567 942.728 159.567 946.064C160.929 946.064 162.245 946.064 163.606 946.064C163.606 942.728 163.606 936.415 163.606 933.034C163.606 931.411 164.968 930.058 166.647 930.058C168.325 930.058 169.687 931.411 169.687 933.034C169.687 936.415 169.687 942.728 169.687 946.064C170.368 946.064 171.003 946.064 171.684 946.064C172.364 946.064 173.044 946.064 173.726 946.064C173.726 942.728 173.726 936.415 173.726 933.034C173.726 931.411 175.087 930.058 176.766 930.058C178.399 930.058 179.76 931.411 179.76 933.034C179.76 936.415 179.76 942.728 179.76 946.064C181.122 946.064 182.483 946.064 183.799 946.064C183.799 942.728 183.799 936.415 183.799 933.034C183.799 926.766 176.13 923.655 171.684 928.119ZM208.076 930.013H217.151V926H208.076C204.718 926 201.995 928.705 201.995 932.042C201.995 934.973 204.083 937.407 206.896 937.948C207.259 938.039 207.667 938.039 208.076 938.039H212.523C213.657 938.039 214.564 938.94 214.564 940.067C214.564 941.15 213.657 942.051 212.523 942.051H203.446V946.064H212.523C215.88 946.064 218.603 943.404 218.603 940.067C218.603 937.137 216.515 934.702 213.702 934.161C213.339 934.071 212.931 934.026 212.523 934.026H208.076C206.941 934.026 206.034 933.124 206.034 932.042C206.034 930.915 206.941 930.013 208.076 930.013Z" fill="#B71C1C"/>
<path d="M198.267 926V937.042C198.267 939.825 195.971 942.024 193.124 942.024C190.324 942.024 188.027 939.825 188.027 937.042V926H183.94V937.042C183.94 942.024 188.073 946.064 193.124 946.064C198.222 946.064 202.354 942.024 202.354 937.042V926H198.267Z" fill="white"/>
</svg>
