<svg width="463" height="196" viewBox="0 0 463 196" fill="none" xmlns="http://www.w3.org/2000/svg">
<path d="M35.5315 109.672C41.3632 109.672 46.4433 110.635 50.772 112.561C55.1006 114.487 58.4373 117.256 60.782 120.868C63.1267 124.48 64.2991 128.694 64.2991 133.509C64.2991 138.324 63.1267 142.538 60.782 146.15C58.4373 149.762 55.1006 152.531 50.772 154.457C46.4433 156.383 41.3632 157.346 35.5315 157.346H26.4232V172.876H5.14062V109.672H35.5315ZM34.1788 140.913C37.0645 140.913 39.2289 140.281 40.6718 139.017C42.1146 137.692 42.8361 135.857 42.8361 133.509C42.8361 131.161 42.1146 129.356 40.6718 128.091C39.2289 126.767 37.0645 126.105 34.1788 126.105H26.4232V140.913H34.1788ZM98.3331 156.985H92.5615V172.876H71.2789V109.672H101.67C107.501 109.672 112.582 110.635 116.911 112.561C121.239 114.487 124.576 117.256 126.921 120.868C129.265 124.48 130.438 128.694 130.438 133.509C130.438 138.024 129.415 141.967 127.372 145.337C125.327 148.708 122.381 151.387 118.534 153.373L131.79 172.876H109.065L98.3331 156.985ZM108.974 133.509C108.974 131.161 108.253 129.356 106.81 128.091C105.367 126.767 103.203 126.105 100.317 126.105H92.5615V140.913H100.317C103.203 140.913 105.367 140.281 106.81 139.017C108.253 137.692 108.974 135.857 108.974 133.509ZM190.959 156.804V172.876H138.474V109.672H189.786V125.744H159.396V133.148H186.089V148.497H159.396V156.804H190.959ZM265.726 109.672L239.033 172.876H218.111L191.417 109.672H214.323L229.383 146.601L244.804 109.672H265.726ZM267.844 109.672H289.127V172.876H267.844V109.672ZM351.857 156.804V172.876H299.372V109.672H350.685V125.744H320.294V133.148H346.987V148.497H320.294V156.804H351.857ZM461.885 109.672L441.685 172.876H418.869L408.679 139.107L397.947 172.876H375.132L354.931 109.672H376.845L387.847 145.608L399.48 109.672H419.049L430.051 146.06L441.685 109.672H461.885Z" fill="white"/>
<path d="M131.223 28.9394C128.651 28.9394 126.166 28.9394 123.595 28.9394C123.595 35.3707 123.595 41.7164 123.595 48.0619C123.595 54.4076 123.595 60.7532 123.595 67.1846C126.166 67.1846 128.651 67.1846 131.223 67.1846C131.223 60.7532 131.223 54.4076 131.223 48.0619C131.223 41.7164 136.366 36.5713 142.709 36.5713C142.709 34.0845 142.709 31.5119 142.709 28.9394C138.251 28.9394 134.738 30.1399 131.223 32.7982C131.223 31.5119 131.223 30.2256 131.223 28.9394ZM187.655 49.9485C187.741 49.3483 187.741 48.6623 187.741 48.0619C187.741 46.0897 187.483 44.1174 186.883 42.3166C184.483 34.5989 177.197 28.9394 168.711 28.9394C161.854 28.9394 155.854 32.5409 152.511 37.9433C151.654 39.3153 150.969 40.773 150.454 42.3166C150.197 43.2598 150.025 44.2032 149.854 45.1464C149.682 46.0897 149.598 47.0329 149.598 48.0619C149.598 48.6623 149.682 49.3483 149.682 49.9485C150.626 59.6384 158.768 67.1846 168.711 67.1846C175.483 67.1846 181.483 63.5829 184.826 58.1806L177.454 55.4366C175.397 57.9234 172.226 59.4669 168.711 59.4669C163.054 59.4669 158.34 55.3508 157.397 49.9485H187.655ZM159.882 40.6874C162.026 38.2005 165.198 36.5713 168.711 36.5713C172.911 36.5713 176.598 38.8866 178.569 42.3166H158.768C159.112 41.802 159.455 41.2018 159.882 40.6874ZM217.487 63.0685C225.887 71.6436 240.373 65.7268 240.373 53.7216C240.373 47.3759 240.373 41.0304 240.373 34.6847C240.373 32.7982 240.373 30.8259 240.373 28.9394C237.886 28.9394 235.315 28.9394 232.744 28.9394C232.744 30.8259 232.744 32.7982 232.744 34.6847C232.744 41.0304 232.744 47.3759 232.744 53.7216C232.744 56.8944 230.173 59.4669 227.087 59.4669C223.915 59.4669 221.344 56.8944 221.344 53.7216C221.344 47.3759 221.344 41.0304 221.344 34.6847C221.344 32.7982 221.344 30.8259 221.344 28.9394C218.773 28.9394 216.201 28.9394 213.716 28.9394C213.716 30.8259 213.716 32.7982 213.716 34.6847C213.716 41.0304 213.716 47.3759 213.716 53.7216C213.716 56.8944 211.144 59.4669 207.973 59.4669C204.801 59.4669 202.23 56.8944 202.23 53.7216C202.23 47.3759 202.23 41.0304 202.23 34.6847C202.23 32.7982 202.23 30.8259 202.23 28.9394C199.658 28.9394 197.172 28.9394 194.601 28.9394C194.601 30.8259 194.601 32.7982 194.601 34.6847C194.601 41.0304 194.601 47.3759 194.601 53.7216C194.601 65.7268 209.173 71.6436 217.487 63.0685ZM254.85 67.1846V28.9394H247.221V67.1846H254.85ZM269.301 67.0988V46.0039C269.301 40.6874 273.587 36.4855 278.816 36.4855C284.13 36.4855 288.416 40.6874 288.416 46.0039V67.0988H296.045V46.0039C296.045 36.4855 288.33 28.7678 278.816 28.7678C269.387 28.7678 261.673 36.4855 261.673 46.0039V67.0988H269.301ZM305.052 56.5514C314.053 74.5592 341.225 68.1278 341.225 48.0619C341.225 35.3707 341.225 22.6795 341.225 9.98828H333.596C333.596 17.5344 333.596 25.1663 333.596 32.7125C317.482 20.7073 296.053 38.5435 305.052 56.5514ZM310.709 48.0619C310.709 41.7164 315.767 36.5713 322.11 36.5713C328.453 36.5713 333.596 41.7164 333.596 48.0619C333.596 54.3218 328.453 59.4669 322.11 59.4669C315.767 59.4669 310.709 54.3218 310.709 48.0619Z" fill="white"/>
<path d="M212.651 18.5488V0.041496H208.92V18.5488H212.651ZM229.282 5.35299C230.163 4.48156 231.043 3.61015 231.924 2.73874C226.053 -3.0707 215.989 1.0374 215.989 9.25359C215.989 17.5113 226.053 21.6193 231.924 15.8099C231.043 14.9385 230.163 14.0672 229.282 13.1958C225.759 16.6814 219.721 14.1916 219.721 9.25359C219.721 4.31558 225.759 1.86732 229.282 5.35299ZM253.922 9.29511C253.922 4.1911 249.771 0.041496 244.613 0.041496C239.455 0.041496 235.261 4.1911 235.261 9.29511C235.261 14.3991 239.455 18.5071 244.613 18.5071C249.771 18.5071 253.922 14.3991 253.922 9.29511ZM238.994 9.29511C238.994 6.22438 241.51 3.73464 244.613 3.73464C247.674 3.73464 250.19 6.22438 250.19 9.29511C250.19 12.3658 247.674 14.8141 244.613 14.8141C241.51 14.8141 238.994 12.3658 238.994 9.29511ZM261.01 0.041496C259.752 0.041496 258.536 0.041496 257.279 0.041496C257.279 3.15369 257.279 6.22438 257.279 9.29511C257.279 12.3658 257.279 15.4365 257.279 18.5488C258.536 18.5488 259.752 18.5488 261.01 18.5488C261.01 15.4365 261.01 12.3658 261.01 9.29511C261.01 6.22438 263.526 3.73464 266.629 3.73464C266.629 2.53125 266.629 1.28638 266.629 0.041496C264.448 0.041496 262.729 0.622438 261.01 1.90882C261.01 1.28638 261.01 0.663933 261.01 0.041496ZM283.081 0V10.208C283.081 12.7807 280.985 14.8141 278.385 14.8141C275.827 14.8141 273.731 12.7807 273.731 10.208V0H269.999V10.208C269.999 14.8141 273.773 18.5488 278.385 18.5488C283.04 18.5488 286.814 14.8141 286.814 10.208V0H283.081ZM301.368 1.9918C297.3 -2.11629 290.171 0.74693 290.171 6.51486C290.171 9.62707 290.171 15.4365 290.171 18.5071C291.43 18.5071 292.646 18.5071 293.904 18.5071C293.904 15.4365 293.904 9.62707 293.904 6.51486C293.904 5.02099 295.162 3.77614 296.713 3.77614C298.265 3.77614 299.523 5.02099 299.523 6.51486C299.523 9.62707 299.523 15.4365 299.523 18.5071C300.152 18.5071 300.739 18.5071 301.368 18.5071C301.997 18.5071 302.626 18.5071 303.255 18.5071C303.255 15.4365 303.255 9.62707 303.255 6.51486C303.255 5.02099 304.512 3.77614 306.064 3.77614C307.574 3.77614 308.832 5.02099 308.832 6.51486C308.832 9.62707 308.832 15.4365 308.832 18.5071C310.09 18.5071 311.347 18.5071 312.564 18.5071C312.564 15.4365 312.564 9.62707 312.564 6.51486C312.564 0.74693 305.477 -2.11629 301.368 1.9918Z" fill="white"/>
<path d="M163.542 1.95909C159.473 -2.1675 152.341 0.708604 152.341 6.50247C152.341 9.62868 152.341 15.4642 152.341 18.5488C153.6 18.5488 154.816 18.5488 156.075 18.5488C156.075 15.4642 156.075 9.62868 156.075 6.50247C156.075 5.00188 157.334 3.75143 158.886 3.75143C160.437 3.75143 161.697 5.00188 161.697 6.50247C161.697 9.62868 161.697 15.4642 161.697 18.5488C162.326 18.5488 162.913 18.5488 163.542 18.5488C164.171 18.5488 164.8 18.5488 165.43 18.5488C165.43 15.4642 165.43 9.62868 165.43 6.50247C165.43 5.00188 166.688 3.75143 168.24 3.75143C169.75 3.75143 171.008 5.00188 171.008 6.50247C171.008 9.62868 171.008 15.4642 171.008 18.5488C172.267 18.5488 173.526 18.5488 174.742 18.5488C174.742 15.4642 174.742 9.62868 174.742 6.50247C174.742 0.708604 167.653 -2.1675 163.542 1.95909ZM197.186 3.70974H205.575V0H197.186C194.081 0 191.564 2.50095 191.564 5.58545C191.564 8.29483 193.494 10.5457 196.095 11.0459C196.43 11.1293 196.808 11.1293 197.186 11.1293H201.297C202.345 11.1293 203.184 11.9629 203.184 13.0049C203.184 14.0053 202.345 14.839 201.297 14.839H192.906V18.5488H201.297C204.4 18.5488 206.918 16.0894 206.918 13.0049C206.918 10.2956 204.988 8.04471 202.387 7.54451C202.051 7.46119 201.674 7.41948 201.297 7.41948H197.186C196.137 7.41948 195.298 6.58584 195.298 5.58545C195.298 4.5434 196.137 3.70974 197.186 3.70974Z" fill="#B71C1C"/>
<path d="M188.116 0V10.208C188.116 12.7807 185.994 14.8141 183.362 14.8141C180.773 14.8141 178.65 12.7807 178.65 10.208V0H174.872V10.208C174.872 14.8141 178.693 18.5488 183.362 18.5488C188.075 18.5488 191.895 14.8141 191.895 10.208V0H188.116Z" fill="white"/>
</svg>
