<svg width="173" height="53" viewBox="0 0 173 53" fill="none" xmlns="http://www.w3.org/2000/svg">
<path d="M6.64963 22.8287C4.61853 22.8287 2.65513 22.8287 0.624023 22.8287C0.624023 27.9024 0.624023 32.9084 0.624023 37.9144C0.624023 42.9203 0.624023 47.9263 0.624023 53C2.65513 53 4.61853 53 6.64963 53C6.64963 47.9263 6.64963 42.9203 6.64963 37.9144C6.64963 32.9084 10.7118 28.8495 15.7219 28.8495C15.7219 26.8876 15.7219 24.8582 15.7219 22.8287C12.2013 22.8287 9.42547 23.7758 6.64963 25.8729C6.64963 24.8582 6.64963 23.8435 6.64963 22.8287ZM51.2229 39.4026C51.2906 38.9291 51.2906 38.3879 51.2906 37.9144C51.2906 36.3584 51.0875 34.8025 50.6136 33.3819C48.7179 27.2935 42.9631 22.8287 36.2604 22.8287C30.8441 22.8287 26.1049 25.67 23.4644 29.9318C22.7874 31.0142 22.2457 32.1642 21.8395 33.3819C21.6364 34.126 21.501 34.8702 21.3656 35.6143C21.2302 36.3584 21.1625 37.1026 21.1625 37.9144C21.1625 38.3879 21.2302 38.9291 21.2302 39.4026C21.9749 47.0469 28.4068 53 36.2604 53C41.609 53 46.3482 50.1587 48.9887 45.8969L43.1662 43.7321C41.5413 45.6939 39.0363 46.9116 36.2604 46.9116C31.792 46.9116 28.0683 43.6645 27.3236 39.4026H51.2229ZM29.287 32.0966C30.9795 30.1348 33.4846 28.8495 36.2604 28.8495C39.5779 28.8495 42.4891 30.676 44.0463 33.3819H28.4068C28.6776 32.976 28.9484 32.5025 29.287 32.0966ZM74.7864 49.7528C81.4213 56.5177 92.8632 51.8499 92.8632 42.3792C92.8632 37.3732 92.8632 32.3672 92.8632 27.3612C92.8632 25.8729 92.8632 24.317 92.8632 22.8287C90.8998 22.8287 88.8687 22.8287 86.8376 22.8287C86.8376 24.317 86.8376 25.8729 86.8376 27.3612C86.8376 32.3672 86.8376 37.3732 86.8376 42.3792C86.8376 44.8822 84.8065 46.9116 82.3692 46.9116C79.8642 46.9116 77.833 44.8822 77.833 42.3792C77.833 37.3732 77.833 32.3672 77.833 27.3612C77.833 25.8729 77.833 24.317 77.833 22.8287C75.8019 22.8287 73.7708 22.8287 71.8074 22.8287C71.8074 24.317 71.8074 25.8729 71.8074 27.3612C71.8074 32.3672 71.8074 37.3732 71.8074 42.3792C71.8074 44.8822 69.7763 46.9116 67.2713 46.9116C64.7663 46.9116 62.7352 44.8822 62.7352 42.3792C62.7352 37.3732 62.7352 32.3672 62.7352 27.3612C62.7352 25.8729 62.7352 24.317 62.7352 22.8287C60.7041 22.8287 58.7407 22.8287 56.7096 22.8287C56.7096 24.317 56.7096 25.8729 56.7096 27.3612C56.7096 32.3672 56.7096 37.3732 56.7096 42.3792C56.7096 51.8499 68.2192 56.5177 74.7864 49.7528ZM104.299 53V22.8287H98.273V53H104.299ZM115.713 52.9323V36.2908C115.713 32.0966 119.098 28.7818 123.228 28.7818C127.426 28.7818 130.811 32.0966 130.811 36.2908V52.9323H136.837V36.2908C136.837 28.7818 130.743 22.6934 123.228 22.6934C115.781 22.6934 109.688 28.7818 109.688 36.2908V52.9323H115.713ZM143.952 44.6116C151.061 58.8177 172.523 53.7441 172.523 37.9144C172.523 27.9024 172.523 17.8904 172.523 7.87842H166.497C166.497 13.8315 166.497 19.8522 166.497 25.8053C153.769 16.3345 136.843 30.4054 143.952 44.6116ZM148.42 37.9144C148.42 32.9084 152.415 28.8495 157.425 28.8495C162.435 28.8495 166.497 32.9084 166.497 37.9144C166.497 42.8527 162.435 46.9116 157.425 46.9116C152.415 46.9116 148.42 42.8527 148.42 37.9144Z" fill="white"/>
<path d="M70.9668 14.6329V0.0327358H68.0189V14.6329H70.9668ZM84.1024 4.22292C84.7978 3.53546 85.4933 2.84801 86.1891 2.16056C81.5521 -2.42244 73.6032 0.818393 73.6032 7.30007C73.6032 13.8145 81.5521 17.0553 86.1891 12.4723C85.4933 11.7849 84.7978 11.0974 84.1024 10.41C81.3202 13.1598 76.5507 11.1956 76.5507 7.30007C76.5507 3.40452 81.3202 1.47311 84.1024 4.22292ZM103.565 7.33283C103.565 3.30631 100.286 0.0327358 96.2118 0.0327358C92.1377 0.0327358 88.8258 3.30631 88.8258 7.33283C88.8258 11.3593 92.1377 14.6001 96.2118 14.6001C100.286 14.6001 103.565 11.3593 103.565 7.33283ZM91.7733 7.33283C91.7733 4.91035 93.7607 2.94622 96.2118 2.94622C98.6296 2.94622 100.617 4.91035 100.617 7.33283C100.617 9.75526 98.6296 11.6867 96.2118 11.6867C93.7607 11.6867 91.7733 9.75526 91.7733 7.33283ZM109.163 0.0327358C108.17 0.0327358 107.209 0.0327358 106.216 0.0327358C106.216 2.48792 106.216 4.91035 106.216 7.33283C106.216 9.75526 106.216 12.1777 106.216 14.6329C107.209 14.6329 108.17 14.6329 109.163 14.6329C109.163 12.1777 109.163 9.75526 109.163 7.33283C109.163 4.91035 111.151 2.94622 113.602 2.94622C113.602 1.99688 113.602 1.01481 113.602 0.0327358C111.879 0.0327358 110.521 0.491035 109.163 1.50584C109.163 1.01481 109.163 0.523771 109.163 0.0327358ZM126.597 0V8.05301C126.597 10.0826 124.941 11.6867 122.888 11.6867C120.867 11.6867 119.211 10.0826 119.211 8.05301V0L116.263 0V8.05301C116.263 11.6867 119.244 14.6329 122.888 14.6329C126.564 14.6329 129.545 11.6867 129.545 8.05301V0L126.597 0ZM141.041 1.57132C137.828 -1.66952 132.197 0.589245 132.197 5.13951C132.197 7.5947 132.197 12.1777 132.197 14.6001C133.191 14.6001 134.152 14.6001 135.145 14.6001C135.145 12.1777 135.145 7.5947 135.145 5.13951C135.145 3.96101 136.139 2.97895 137.364 2.97895C138.59 2.97895 139.583 3.96101 139.583 5.13951C139.583 7.5947 139.583 12.1777 139.583 14.6001C140.08 14.6001 140.544 14.6001 141.041 14.6001C141.538 14.6001 142.034 14.6001 142.531 14.6001C142.531 12.1777 142.531 7.5947 142.531 5.13951C142.531 3.96101 143.525 2.97895 144.75 2.97895C145.942 2.97895 146.936 3.96101 146.936 5.13951C146.936 7.5947 146.936 12.1777 146.936 14.6001C147.93 14.6001 148.924 14.6001 149.884 14.6001C149.884 12.1777 149.884 7.5947 149.884 5.13951C149.884 0.589245 144.287 -1.66952 141.041 1.57132Z" fill="white"/>
<path d="M32.1765 1.5455C28.9626 -1.70991 23.3296 0.559011 23.3296 5.12973C23.3296 7.59596 23.3296 12.1996 23.3296 14.6329C24.3237 14.6329 25.2846 14.6329 26.2787 14.6329C26.2787 12.1996 26.2787 7.59596 26.2787 5.12973C26.2787 3.94593 27.2728 2.95946 28.4984 2.95946C29.7244 2.95946 30.7185 3.94593 30.7185 5.12973C30.7185 7.59596 30.7185 12.1996 30.7185 14.6329C31.2156 14.6329 31.6794 14.6329 32.1765 14.6329C32.6735 14.6329 33.1706 14.6329 33.6676 14.6329C33.6676 12.1996 33.6676 7.59596 33.6676 5.12973C33.6676 3.94593 34.6614 2.95946 35.8874 2.95946C37.0802 2.95946 38.0743 3.94593 38.0743 5.12973C38.0743 7.59596 38.0743 12.1996 38.0743 14.6329C39.0684 14.6329 40.0625 14.6329 41.0233 14.6329C41.0233 12.1996 41.0233 7.59596 41.0233 5.12973C41.0233 0.559011 35.4236 -1.70991 32.1765 1.5455ZM58.7503 2.92658H65.3771V0L58.7503 0C56.2983 0 54.3101 1.97298 54.3101 4.40631C54.3101 6.54371 55.8345 8.31939 57.8888 8.71399C58.154 8.77976 58.452 8.77976 58.7503 8.77976H61.9974C62.8257 8.77976 63.4886 9.43741 63.4886 10.2595C63.4886 11.0487 62.8257 11.7063 61.9974 11.7063H55.3703V14.6329H61.9974C64.4495 14.6329 66.4373 12.6928 66.4373 10.2595C66.4373 8.12207 64.9133 6.34639 62.859 5.9518C62.5938 5.88606 62.2954 5.85316 61.9974 5.85316H58.7503C57.9217 5.85316 57.2592 5.1955 57.2592 4.40631C57.2592 3.58424 57.9217 2.92658 58.7503 2.92658Z" fill="#B71C1C"/>
<path d="M51.5883 0V8.05301C51.5883 10.0826 49.9117 11.6867 47.8327 11.6867C45.7874 11.6867 44.1105 10.0826 44.1105 8.05301V0L41.1263 0V8.05301C41.1263 11.6867 44.1441 14.6329 47.8327 14.6329C51.555 14.6329 54.5728 11.6867 54.5728 8.05301V0L51.5883 0Z" fill="white"/>
</svg>
