<svg width="37" height="37" viewBox="0 0 37 37" fill="none" xmlns="http://www.w3.org/2000/svg">
    <path d="M36.595 0.202148H0V36.7971H36.595V0.202148Z" fill="white"/>
    <path d="M8.73289 12.4415C8.76344 12.1397 8.64835 11.8414 8.42301 11.6383L6.12755 8.87303V8.45996H13.2549L18.764 20.5421L23.6074 8.45996H30.402V8.87303L28.4394 10.7548C28.2702 10.8837 28.1863 11.0957 28.2213 11.3055V25.1317C28.1863 25.3415 28.2702 25.5535 28.4394 25.6825L30.3561 27.5642V27.9773H20.7152V27.5642L22.7007 25.6366C22.8959 25.4415 22.8959 25.3842 22.8959 25.0858V13.9101L17.3753 27.9314H16.6293L10.202 13.9101V23.3074C10.1484 23.7024 10.2796 24.1002 10.5578 24.3859L13.1402 27.5183V27.9314H5.81767V27.5183L8.40005 24.3859C8.6762 24.0997 8.79976 23.6993 8.73289 23.3074V12.4415Z" fill="black"/>
</svg>
