<svg width="20" height="21" viewBox="0 0 20 21" fill="none" xmlns="http://www.w3.org/2000/svg">
    <g>
        <path d="M17.6226 11.5211C17.6611 11.1938 17.6867 10.8535 17.6867 10.5001C17.6867 10.1467 17.6611 9.80633 17.6098 9.47909L19.7749 7.75125C19.967 7.59418 20.0183 7.3062 19.903 7.08368L17.8532 3.45782C17.7251 3.22221 17.4561 3.14367 17.2255 3.22221L14.6761 4.26938C14.138 3.85051 13.5743 3.51018 12.9466 3.24839L12.5623 0.473372C12.5238 0.211576 12.306 0.0283203 12.0498 0.0283203H7.95027C7.69405 0.0283203 7.48907 0.211576 7.45064 0.473372L7.06631 3.24839C6.43857 3.51018 5.86207 3.8636 5.33682 4.26938L2.78743 3.22221C2.55683 3.13058 2.2878 3.22221 2.15969 3.45782L0.109919 7.08368C-0.0181921 7.31929 0.0330524 7.59418 0.238029 7.75125L2.4031 9.47909C2.35185 9.80633 2.31342 10.1598 2.31342 10.5001C2.31342 10.8404 2.33904 11.1938 2.39029 11.5211L0.225218 13.2489C0.033052 13.406 -0.0181921 13.694 0.0971076 13.9165L2.14688 17.5423C2.27499 17.778 2.54402 17.8565 2.77462 17.778L5.32401 16.7308C5.86207 17.1496 6.42576 17.49 7.0535 17.7518L7.43783 20.5268C7.48907 20.7886 7.69405 20.9718 7.95027 20.9718H12.0498C12.306 20.9718 12.5238 20.7886 12.5494 20.5268L12.9338 17.7518C13.5615 17.49 14.138 17.1366 14.6633 16.7308L17.2127 17.778C17.4433 17.8696 17.7123 17.778 17.8404 17.5423L19.8902 13.9165C20.0183 13.6809 19.967 13.406 19.7621 13.2489L17.6226 11.5211ZM10 14.427C7.88622 14.427 6.15672 12.6599 6.15672 10.5001C6.15672 8.34029 7.88622 6.57318 10 6.57318C12.1139 6.57318 13.8434 8.34029 13.8434 10.5001C13.8434 12.6599 12.1139 14.427 10 14.427Z" fill="#FD0F57"/>
    </g>
</svg>
