<svg width="1037" height="150" viewBox="0 0 1037 150" fill="none" xmlns="http://www.w3.org/2000/svg">
    <path d="M399.625 141.25V29.75H377.375V141.25H399.625ZM498.774 61.75C504.024 56.5 509.274 51.25 514.524 46C479.524 11 419.524 35.75 419.524 85.25C419.524 135 479.524 159.75 514.524 124.75C509.274 119.5 504.024 114.25 498.774 109C477.774 130 441.774 115 441.774 85.25C441.774 55.5 477.774 40.75 498.774 61.75ZM645.676 85.5C645.676 54.75 620.926 29.75 590.176 29.75C559.426 29.75 534.426 54.75 534.426 85.5C534.426 116.25 559.426 141 590.176 141C620.926 141 645.676 116.25 645.676 85.5ZM556.676 85.5C556.676 67 571.676 52 590.176 52C608.426 52 623.426 67 623.426 85.5C623.426 104 608.426 118.75 590.176 118.75C571.676 118.75 556.676 104 556.676 85.5ZM687.936 29.75C680.436 29.75 673.186 29.75 665.686 29.75C665.686 48.5 665.686 67 665.686 85.5C665.686 104 665.686 122.5 665.686 141.25C673.186 141.25 680.436 141.25 687.936 141.25C687.936 122.5 687.936 104 687.936 85.5C687.936 67 702.936 52 721.436 52C721.436 44.75 721.436 37.25 721.436 29.75C708.436 29.75 698.186 33.25 687.936 41C687.936 37.25 687.936 33.5 687.936 29.75ZM819.526 29.5V91C819.526 106.5 807.026 118.75 791.526 118.75C776.276 118.75 763.776 106.5 763.776 91V29.5H741.526V91C741.526 118.75 764.026 141.25 791.526 141.25C819.276 141.25 841.776 118.75 841.776 91V29.5H819.526ZM928.549 41.5C904.299 16.75 861.799 34 861.799 68.75C861.799 87.5 861.799 122.5 861.799 141C869.299 141 876.549 141 884.049 141C884.049 122.5 884.049 87.5 884.049 68.75C884.049 59.75 891.549 52.25 900.799 52.25C910.049 52.25 917.549 59.75 917.549 68.75C917.549 87.5 917.549 122.5 917.549 141C921.299 141 924.799 141 928.549 141C932.299 141 936.049 141 939.799 141C939.799 122.5 939.799 87.5 939.799 68.75C939.799 59.75 947.299 52.25 956.549 52.25C965.549 52.25 973.049 59.75 973.049 68.75C973.049 87.5 973.049 122.5 973.049 141C980.549 141 988.049 141 995.299 141C995.299 122.5 995.299 87.5 995.299 68.75C995.299 34 953.049 16.75 928.549 41.5Z" fill="white"/>
    <path d="M109.154 41.5C84.9045 16.75 42.4044 34 42.4044 68.75C42.4044 87.5 42.4044 122.5 42.4044 141C49.9045 141 57.1545 141 64.6545 141C64.6545 122.5 64.6545 87.5 64.6545 68.75C64.6545 59.75 72.1545 52.25 81.4045 52.25C90.6545 52.25 98.1545 59.75 98.1545 68.75C98.1545 87.5 98.1545 122.5 98.1545 141C101.904 141 105.404 141 109.154 141C112.904 141 116.654 141 120.404 141C120.404 122.5 120.404 87.5 120.404 68.75C120.404 59.75 127.904 52.25 137.154 52.25C146.154 52.25 153.654 59.75 153.654 68.75C153.654 87.5 153.654 122.5 153.654 141C161.154 141 168.654 141 175.904 141C175.904 122.5 175.904 87.5 175.904 68.75C175.904 34 133.654 16.75 109.154 41.5ZM309.654 52H359.654V29.75H309.654C291.154 29.75 276.154 44.75 276.154 63.25C276.154 79.5 287.654 93 303.154 96C305.154 96.5 307.404 96.5 309.654 96.5H334.154C340.404 96.5 345.404 101.5 345.404 107.75C345.404 113.75 340.404 118.75 334.154 118.75H284.154V141H334.154C352.654 141 367.654 126.25 367.654 107.75C367.654 91.5 356.154 78 340.654 75C338.654 74.5 336.404 74.25 334.154 74.25H309.654C303.404 74.25 298.404 69.25 298.404 63.25C298.404 57 303.404 52 309.654 52Z" fill="white"/>
    <path d="M253.881 29.5V91C253.881 106.5 241.381 118.75 225.881 118.75C210.631 118.75 198.131 106.5 198.131 91V29.5H175.881V91C175.881 118.75 198.381 141.25 225.881 141.25C253.631 141.25 276.131 118.75 276.131 91V29.5H253.881Z" fill="white"/>
</svg>
