<svg width="553" height="283" viewBox="0 0 553 283" fill="none" xmlns="http://www.w3.org/2000/svg">
    <path opacity="0.22" d="M72.3317 240.501H126.359L119.735 273H6.9197L12.0947 247.332L75.4367 198.066C82.7507 192.408 87.7877 187.647 90.5477 183.783C93.3077 179.781 94.6877 175.71 94.6877 171.57C94.6877 167.43 93.1697 164.187 90.1337 161.841C87.0977 159.357 82.7507 158.115 77.0927 158.115C71.9867 158.115 67.0877 159.357 62.3957 161.841C57.8417 164.325 53.7707 167.913 50.1827 172.605L22.8587 154.596C28.6547 145.626 36.8657 138.519 47.4917 133.275C58.2557 127.893 70.1927 125.202 83.3027 125.202C93.6527 125.202 102.83 126.927 110.834 130.377C118.976 133.827 125.324 138.657 129.878 144.867C134.432 150.939 136.709 157.77 136.709 165.36C136.709 174.468 134.156 182.955 129.05 190.821C124.082 198.687 115.319 207.381 102.761 216.903L72.3317 240.501ZM198.324 275.898C181.626 275.898 168.378 270.999 158.58 261.201C148.92 251.265 144.09 237.534 144.09 220.008C144.09 202.344 147.333 186.336 153.819 171.984C160.443 157.494 169.62 146.109 181.35 137.829C193.08 129.411 206.328 125.202 221.094 125.202C237.792 125.202 250.971 130.17 260.631 140.106C270.429 149.904 275.328 163.566 275.328 181.092C275.328 198.756 272.016 214.833 265.392 229.323C258.906 243.675 249.798 255.06 238.068 263.478C226.338 271.758 213.09 275.898 198.324 275.898ZM202.257 242.364C208.881 242.364 214.608 239.121 219.438 232.635C224.268 226.149 227.925 218.214 230.409 208.83C232.893 199.446 234.135 190.545 234.135 182.127C234.135 174.123 232.617 168.258 229.581 164.532C226.683 160.668 222.543 158.736 217.161 158.736C210.537 158.736 204.81 161.979 199.98 168.465C195.15 174.951 191.493 182.886 189.009 192.27C186.525 201.654 185.283 210.555 185.283 218.973C185.283 234.567 190.941 242.364 202.257 242.364ZM336.135 240.501H390.162L383.538 273H270.723L275.898 247.332L339.24 198.066C346.554 192.408 351.591 187.647 354.351 183.783C357.111 179.781 358.491 175.71 358.491 171.57C358.491 167.43 356.973 164.187 353.937 161.841C350.901 159.357 346.554 158.115 340.896 158.115C335.79 158.115 330.891 159.357 326.199 161.841C321.645 164.325 317.574 167.913 313.986 172.605L286.662 154.596C292.458 145.626 300.669 138.519 311.295 133.275C322.059 127.893 333.996 125.202 347.106 125.202C357.456 125.202 366.633 126.927 374.637 130.377C382.779 133.827 389.127 138.657 393.681 144.867C398.235 150.939 400.512 157.77 400.512 165.36C400.512 174.468 397.959 182.955 392.853 190.821C387.885 198.687 379.122 207.381 366.564 216.903L336.135 240.501ZM462.127 275.898C445.429 275.898 432.181 270.999 422.383 261.201C412.723 251.265 407.893 237.534 407.893 220.008C407.893 202.344 411.136 186.336 417.622 171.984C424.246 157.494 433.423 146.109 445.153 137.829C456.883 129.411 470.131 125.202 484.897 125.202C501.595 125.202 514.774 130.17 524.434 140.106C534.232 149.904 539.131 163.566 539.131 181.092C539.131 198.756 535.819 214.833 529.195 229.323C522.709 243.675 513.601 255.06 501.871 263.478C490.141 271.758 476.893 275.898 462.127 275.898ZM466.06 242.364C472.684 242.364 478.411 239.121 483.241 232.635C488.071 226.149 491.728 218.214 494.212 208.83C496.696 199.446 497.938 190.545 497.938 182.127C497.938 174.123 496.42 168.258 493.384 164.532C490.486 160.668 486.346 158.736 480.964 158.736C474.34 158.736 468.613 161.979 463.783 168.465C458.953 174.951 455.296 182.886 452.812 192.27C450.328 201.654 449.086 210.555 449.086 218.973C449.086 234.567 454.744 242.364 466.06 242.364Z" fill="url(#paint0_linear)"/>
    <path d="M134.956 227.549L133.118 225.178L126.192 230.549H134.956V227.549ZM172.279 227.549L175.219 228.148L175.952 224.549H172.279V227.549ZM167.703 250V253H170.153L170.643 250.599L167.703 250ZM89.7682 250L86.8274 249.407L86.103 253H89.7682V250ZM93.3432 232.268L91.5014 229.9L90.6224 230.584L90.4024 231.675L93.3432 232.268ZM137.101 198.234L135.266 195.861L135.259 195.866L137.101 198.234ZM147.54 188.367L149.981 190.111L149.996 190.091L150.01 190.07L147.54 188.367ZM147.254 173.209L145.354 175.531L145.387 175.557L145.42 175.583L147.254 173.209ZM128.092 173.209L126.689 170.558L126.672 170.566L126.656 170.575L128.092 173.209ZM119.655 180.645L118.004 183.15L120.339 184.689L122.038 182.467L119.655 180.645ZM100.779 168.204L98.2594 166.576L96.646 169.073L99.1283 170.709L100.779 168.204ZM117.796 153.475L119.124 156.165L119.131 156.162L119.138 156.158L117.796 153.475ZM161.554 151.473L160.367 154.228L160.375 154.232L160.384 154.235L161.554 151.473ZM174.71 161.483L172.291 163.257L172.301 163.27L172.31 163.283L174.71 161.483ZM174.138 193.229L171.622 191.596L171.612 191.611L171.602 191.627L174.138 193.229ZM155.977 211.247L154.165 208.856L154.152 208.866L154.139 208.876L155.977 211.247ZM134.956 230.549H172.279V224.549H134.956V230.549ZM169.34 226.95L164.764 249.401L170.643 250.599L175.219 228.148L169.34 226.95ZM167.703 247H89.7682V253H167.703V247ZM92.709 250.593L96.284 232.861L90.4024 231.675L86.8274 249.407L92.709 250.593ZM95.185 234.636L138.943 200.602L135.259 195.866L91.5014 229.9L95.185 234.636ZM138.937 200.607C144.046 196.655 147.811 193.149 149.981 190.111L145.099 186.623C143.456 188.924 140.262 191.996 135.266 195.861L138.937 200.607ZM150.01 190.07C152.2 186.894 153.4 183.499 153.4 179.93H147.4C147.4 182.081 146.694 184.31 145.071 186.664L150.01 190.07ZM153.4 179.93C153.4 176.226 151.986 173.074 149.089 170.835L145.42 175.583C146.717 176.586 147.4 177.914 147.4 179.93H153.4ZM149.154 170.887C146.328 168.575 142.548 167.635 138.245 167.635V173.635C141.76 173.635 143.986 174.411 145.354 175.531L149.154 170.887ZM138.245 167.635C134.209 167.635 130.345 168.622 126.689 170.558L129.496 175.86C132.323 174.364 135.227 173.635 138.245 173.635V167.635ZM126.656 170.575C123.093 172.519 119.971 175.294 117.272 178.823L122.038 182.467C124.297 179.514 126.799 177.331 129.529 175.843L126.656 170.575ZM121.306 178.14L102.43 165.699L99.1283 170.709L118.004 183.15L121.306 178.14ZM103.299 169.832C106.977 164.139 112.214 159.575 119.124 156.165L116.469 150.785C108.697 154.62 102.589 159.875 98.2594 166.576L103.299 169.832ZM119.138 156.158C126.121 152.667 133.902 150.898 142.535 150.898V144.898C133.055 144.898 124.343 146.847 116.455 150.792L119.138 156.158ZM142.535 150.898C149.352 150.898 155.276 152.034 160.367 154.228L162.742 148.718C156.774 146.146 150.018 144.898 142.535 144.898V150.898ZM160.384 154.235C165.586 156.44 169.51 159.464 172.291 163.257L177.129 159.709C173.619 154.922 168.772 151.273 162.725 148.711L160.384 154.235ZM172.31 163.283C175.067 166.958 176.429 171.046 176.429 175.64H182.429C182.429 169.748 180.646 164.397 177.11 159.683L172.31 163.283ZM176.429 175.64C176.429 181.334 174.843 186.633 171.622 191.596L176.655 194.862C180.488 188.957 182.429 182.53 182.429 175.64H176.429ZM171.602 191.627C168.45 196.617 162.724 202.366 154.165 208.856L157.79 213.638C166.581 206.972 172.962 200.709 176.675 194.831L171.602 191.627ZM154.139 208.876L133.118 225.178L136.795 229.92L157.816 213.618L154.139 208.876ZM194.538 241.849L192.387 243.94L192.402 243.955L192.417 243.97L194.538 241.849ZM191.249 180.216L188.521 178.969L188.515 178.981L191.249 180.216ZM210.268 156.621L211.998 159.072L212.008 159.065L212.017 159.058L210.268 156.621ZM265.037 158.194L262.886 160.285L262.901 160.3L262.916 160.315L265.037 158.194ZM268.326 219.827L265.598 218.58L265.592 218.592L268.326 219.827ZM249.45 243.422L251.18 245.873L251.19 245.866L251.199 245.859L249.45 243.422ZM236.58 222.115L238.986 223.907L238.986 223.907L236.58 222.115ZM244.159 205.67L247.059 206.438L247.059 206.438L244.159 205.67ZM243.587 175.068L241.187 176.868L241.223 176.916L241.261 176.963L243.587 175.068ZM223.138 177.785L225.544 179.577L225.544 179.577L223.138 177.785ZM215.559 194.23L218.459 194.998L218.459 194.998L215.559 194.23ZM221.994 249.002C211.08 249.002 202.753 245.821 196.659 239.728L192.417 243.97C199.86 251.414 209.837 255.002 221.994 255.002V249.002ZM196.689 239.758C190.694 233.592 187.528 224.935 187.528 213.392H181.528C181.528 226.064 185.035 236.378 192.387 243.94L196.689 239.758ZM187.528 213.392C187.528 201.563 189.698 190.933 193.983 181.451L188.515 178.981C183.839 189.328 181.528 200.815 181.528 213.392H187.528ZM193.977 181.463C198.358 171.881 204.374 164.453 211.998 159.072L208.538 154.17C199.955 160.229 193.292 168.531 188.521 178.969L193.977 181.463ZM212.017 159.058C219.598 153.618 228.136 150.898 237.724 150.898V144.898C226.911 144.898 217.144 147.994 208.519 154.184L212.017 159.058ZM237.724 150.898C248.627 150.898 256.891 154.119 262.886 160.285L267.188 156.103C259.837 148.541 249.891 144.898 237.724 144.898V150.898ZM262.916 160.315C268.982 166.382 272.19 174.975 272.19 186.508H278.19C278.19 173.827 274.629 163.543 267.158 156.073L262.916 160.315ZM272.19 186.508C272.19 198.327 269.976 209.002 265.598 218.58L271.054 221.074C275.828 210.632 278.19 199.094 278.19 186.508H272.19ZM265.592 218.592C261.308 228.071 255.338 235.504 247.701 240.985L251.199 245.859C259.769 239.709 266.382 231.412 271.06 221.062L265.592 218.592ZM247.72 240.971C240.138 246.323 231.594 249.002 221.994 249.002V255.002C232.795 255.002 242.555 251.961 251.18 245.873L247.72 240.971ZM224.711 231.836C230.447 231.836 235.223 228.96 238.986 223.907L234.174 220.323C231.263 224.232 228.127 225.836 224.711 225.836V231.836ZM238.986 223.907C242.592 219.065 245.264 213.218 247.059 206.438L241.259 204.902C239.622 211.088 237.241 216.204 234.174 220.323L238.986 223.907ZM247.059 206.438C248.832 199.742 249.733 193.333 249.733 187.223H243.733C243.733 192.743 242.919 198.633 241.259 204.902L247.059 206.438ZM249.733 187.223C249.733 181.426 248.654 176.537 245.913 173.173L241.261 176.963C242.715 178.747 243.733 181.962 243.733 187.223H249.733ZM245.987 173.268C243.348 169.749 239.545 168.064 235.007 168.064V174.064C237.905 174.064 239.822 175.048 241.187 176.868L245.987 173.268ZM235.007 168.064C229.271 168.064 224.495 170.94 220.732 175.993L225.544 179.577C228.455 175.668 231.591 174.064 235.007 174.064V168.064ZM220.732 175.993C217.126 180.835 214.454 186.682 212.659 193.462L218.459 194.998C220.096 188.812 222.477 183.696 225.544 179.577L220.732 175.993ZM212.659 193.462C210.887 200.158 209.985 206.567 209.985 212.677H215.985C215.985 207.157 216.8 201.267 218.459 194.998L212.659 193.462ZM209.985 212.677C209.985 218.337 210.996 223.123 213.488 226.558C216.111 230.172 220.033 231.836 224.711 231.836V225.836C221.572 225.836 219.631 224.807 218.345 223.034C216.929 221.083 215.985 217.79 215.985 212.677H209.985ZM317.197 227.549L315.359 225.178L308.434 230.549H317.197V227.549ZM354.52 227.549L357.46 228.148L358.194 224.549H354.52V227.549ZM349.944 250V253H352.395L352.884 250.599L349.944 250ZM272.009 250L269.069 249.407L268.344 253H272.009V250ZM275.584 232.268L273.743 229.9L272.864 230.584L272.644 231.675L275.584 232.268ZM319.342 198.234L317.507 195.861L317.501 195.866L319.342 198.234ZM329.781 188.367L332.223 190.111L332.237 190.091L332.251 190.07L329.781 188.367ZM329.495 173.209L327.596 175.531L327.628 175.557L327.661 175.583L329.495 173.209ZM310.333 173.209L308.93 170.558L308.913 170.566L308.897 170.575L310.333 173.209ZM301.896 180.645L300.245 183.15L302.581 184.689L304.279 182.467L301.896 180.645ZM283.02 168.204L280.501 166.576L278.887 169.073L281.369 170.709L283.02 168.204ZM300.037 153.475L301.365 156.165L301.372 156.162L301.379 156.158L300.037 153.475ZM343.795 151.473L342.608 154.228L342.616 154.232L342.625 154.235L343.795 151.473ZM356.951 161.483L354.532 163.257L354.542 163.27L354.551 163.283L356.951 161.483ZM356.379 193.229L353.863 191.596L353.853 191.611L353.843 191.627L356.379 193.229ZM338.218 211.247L336.406 208.856L336.393 208.866L336.38 208.876L338.218 211.247ZM317.197 230.549H354.52V224.549H317.197V230.549ZM351.581 226.95L347.005 249.401L352.884 250.599L357.46 228.148L351.581 226.95ZM349.944 247H272.009V253H349.944V247ZM274.95 250.593L278.525 232.861L272.644 231.675L269.069 249.407L274.95 250.593ZM277.426 234.636L321.184 200.602L317.501 195.866L273.743 229.9L277.426 234.636ZM321.178 200.607C326.287 196.655 330.053 193.149 332.223 190.111L327.34 186.623C325.697 188.924 322.503 191.996 317.507 195.861L321.178 200.607ZM332.251 190.07C334.441 186.894 335.641 183.499 335.641 179.93H329.641C329.641 182.081 328.935 184.31 327.312 186.664L332.251 190.07ZM335.641 179.93C335.641 176.226 334.227 173.074 331.33 170.835L327.661 175.583C328.959 176.586 329.641 177.914 329.641 179.93H335.641ZM331.395 170.887C328.569 168.575 324.789 167.635 320.486 167.635V173.635C324.001 173.635 326.227 174.411 327.596 175.531L331.395 170.887ZM320.486 167.635C316.45 167.635 312.586 168.622 308.93 170.558L311.737 175.86C314.564 174.364 317.468 173.635 320.486 173.635V167.635ZM308.897 170.575C305.334 172.519 302.212 175.294 299.513 178.823L304.279 182.467C306.538 179.514 309.041 177.331 311.77 175.843L308.897 170.575ZM303.547 178.14L284.671 165.699L281.369 170.709L300.245 183.15L303.547 178.14ZM285.54 169.832C289.219 164.139 294.456 159.575 301.365 156.165L298.71 150.785C290.938 154.62 284.83 159.875 280.501 166.576L285.54 169.832ZM301.379 156.158C308.362 152.667 316.143 150.898 324.776 150.898V144.898C315.296 144.898 306.585 146.847 298.696 150.792L301.379 156.158ZM324.776 150.898C331.593 150.898 337.517 152.034 342.608 154.228L344.983 148.718C339.015 146.146 332.259 144.898 324.776 144.898V150.898ZM342.625 154.235C347.827 156.44 351.751 159.464 354.532 163.257L359.371 159.709C355.86 154.922 351.013 151.273 344.966 148.711L342.625 154.235ZM354.551 163.283C357.308 166.958 358.67 171.046 358.67 175.64H364.67C364.67 169.748 362.887 164.397 359.351 159.683L354.551 163.283ZM358.67 175.64C358.67 181.334 357.085 186.633 353.863 191.596L358.896 194.862C362.729 188.957 364.67 182.53 364.67 175.64H358.67ZM353.843 191.627C350.691 196.617 344.965 202.366 336.406 208.856L340.031 213.638C348.822 206.972 355.204 200.709 358.916 194.831L353.843 191.627ZM336.38 208.876L315.359 225.178L319.036 229.92L340.057 213.618L336.38 208.876ZM376.779 241.849L374.628 243.94L374.643 243.955L374.658 243.97L376.779 241.849ZM373.49 180.216L370.762 178.969L370.756 178.981L373.49 180.216ZM392.509 156.621L394.239 159.072L394.249 159.065L394.258 159.058L392.509 156.621ZM447.278 158.194L445.127 160.285L445.142 160.3L445.157 160.315L447.278 158.194ZM450.567 219.827L447.839 218.58L447.833 218.592L450.567 219.827ZM431.691 243.422L433.421 245.873L433.431 245.866L433.44 245.859L431.691 243.422ZM418.821 222.115L421.227 223.907L421.227 223.907L418.821 222.115ZM426.4 205.67L429.3 206.438L429.3 206.438L426.4 205.67ZM425.828 175.068L423.428 176.868L423.464 176.916L423.503 176.963L425.828 175.068ZM405.379 177.785L407.785 179.577L407.785 179.577L405.379 177.785ZM397.8 194.23L400.7 194.998L400.7 194.998L397.8 194.23ZM404.235 249.002C393.321 249.002 384.994 245.821 378.901 239.728L374.658 243.97C382.102 251.414 392.079 255.002 404.235 255.002V249.002ZM378.93 239.758C372.936 233.592 369.769 224.935 369.769 213.392H363.769C363.769 226.064 367.276 236.378 374.628 243.94L378.93 239.758ZM369.769 213.392C369.769 201.563 371.939 190.933 376.224 181.451L370.756 178.981C366.08 189.328 363.769 200.815 363.769 213.392H369.769ZM376.219 181.463C380.599 171.881 386.616 164.453 394.239 159.072L390.779 154.17C382.196 160.229 375.534 168.531 370.762 178.969L376.219 181.463ZM394.258 159.058C401.84 153.618 410.377 150.898 419.965 150.898V144.898C409.152 144.898 399.386 147.994 390.76 154.184L394.258 159.058ZM419.965 150.898C430.869 150.898 439.132 154.119 445.127 160.285L449.429 156.103C442.078 148.541 432.133 144.898 419.965 144.898V150.898ZM445.157 160.315C451.224 166.382 454.431 174.975 454.431 186.508H460.431C460.431 173.827 456.87 163.543 449.4 156.073L445.157 160.315ZM454.431 186.508C454.431 198.327 452.217 209.002 447.839 218.58L453.296 221.074C458.069 210.632 460.431 199.094 460.431 186.508H454.431ZM447.833 218.592C443.549 228.071 437.579 235.504 429.942 240.985L433.44 245.859C442.01 239.709 448.624 231.412 453.301 221.062L447.833 218.592ZM429.961 240.971C422.379 246.323 413.835 249.002 404.235 249.002V255.002C415.037 255.002 424.797 251.961 433.421 245.873L429.961 240.971ZM406.952 231.836C412.688 231.836 417.465 228.96 421.227 223.907L416.415 220.323C413.505 224.232 410.368 225.836 406.952 225.836V231.836ZM421.227 223.907C424.833 219.065 427.506 213.218 429.3 206.438L423.5 204.902C421.863 211.088 419.483 216.204 416.415 220.323L421.227 223.907ZM429.3 206.438C431.073 199.742 431.974 193.333 431.974 187.223H425.974C425.974 192.743 425.16 198.633 423.5 204.902L429.3 206.438ZM431.974 187.223C431.974 181.426 430.895 176.537 428.154 173.173L423.503 176.963C424.956 178.747 425.974 181.962 425.974 187.223H431.974ZM428.228 173.268C425.589 169.749 421.786 168.064 417.248 168.064V174.064C420.146 174.064 422.063 175.048 423.428 176.868L428.228 173.268ZM417.248 168.064C411.512 168.064 406.736 170.94 402.973 175.993L407.785 179.577C410.696 175.668 413.832 174.064 417.248 174.064V168.064ZM402.973 175.993C399.367 180.835 396.695 186.682 394.9 193.462L400.7 194.998C402.338 188.812 404.718 183.696 407.785 179.577L402.973 175.993ZM394.9 193.462C393.128 200.158 392.226 206.567 392.226 212.677H398.226C398.226 207.157 399.041 201.267 400.7 194.998L394.9 193.462ZM392.226 212.677C392.226 218.337 393.237 223.123 395.73 226.558C398.352 230.172 402.274 231.836 406.952 231.836V225.836C403.813 225.836 401.872 224.807 400.586 223.034C399.17 221.083 398.226 217.79 398.226 212.677H392.226Z" fill="#FD0F57"/>
    <path d="M182.977 21.0848C180.625 21.0848 178.352 21.0848 176 21.0848C176 26.9562 176 32.7493 176 38.5424C176 44.3355 176 50.1286 176 56C178.352 56 180.625 56 182.977 56C182.977 50.1286 182.977 44.3355 182.977 38.5424C182.977 32.7493 187.68 28.0522 193.481 28.0522C193.481 25.7819 193.481 23.4334 193.481 21.0848C189.404 21.0848 186.19 22.1808 182.977 24.6077C182.977 23.4334 182.977 22.2591 182.977 21.0848ZM234.584 40.2647C234.663 39.7167 234.663 39.0904 234.663 38.5424C234.663 36.7419 234.427 34.9413 233.879 33.2973C231.684 26.2517 225.021 21.0848 217.26 21.0848C210.989 21.0848 205.502 24.3728 202.445 29.3048C201.661 30.5573 201.034 31.8882 200.564 33.2973C200.329 34.1585 200.172 35.0196 200.015 35.8807C199.858 36.7419 199.78 37.603 199.78 38.5424C199.78 39.0904 199.858 39.7167 199.858 40.2647C200.72 49.1109 208.167 56 217.26 56C223.453 56 228.94 52.7121 231.997 47.7801L225.256 45.275C223.375 47.5452 220.474 48.9544 217.26 48.9544C212.087 48.9544 207.775 45.1967 206.913 40.2647H234.584ZM209.186 31.8099C211.146 29.5396 214.046 28.0522 217.26 28.0522C221.101 28.0522 224.472 30.1659 226.275 33.2973H208.167C208.481 32.8276 208.794 32.2796 209.186 31.8099ZM261.866 52.2423C269.548 60.0709 282.796 54.6692 282.796 43.7093C282.796 37.9162 282.796 32.123 282.796 26.3299C282.796 24.6077 282.796 22.8071 282.796 21.0848C280.523 21.0848 278.171 21.0848 275.82 21.0848C275.82 22.8071 275.82 24.6077 275.82 26.3299C275.82 32.123 275.82 37.9162 275.82 43.7093C275.82 46.6058 273.468 48.9544 270.646 48.9544C267.746 48.9544 265.394 46.6058 265.394 43.7093C265.394 37.9162 265.394 32.123 265.394 26.3299C265.394 24.6077 265.394 22.8071 265.394 21.0848C263.042 21.0848 260.691 21.0848 258.417 21.0848C258.417 22.8071 258.417 24.6077 258.417 26.3299C258.417 32.123 258.417 37.9162 258.417 43.7093C258.417 46.6058 256.066 48.9544 253.165 48.9544C250.265 48.9544 247.913 46.6058 247.913 43.7093C247.913 37.9162 247.913 32.123 247.913 26.3299C247.913 24.6077 247.913 22.8071 247.913 21.0848C245.562 21.0848 243.288 21.0848 240.937 21.0848C240.937 22.8071 240.937 24.6077 240.937 26.3299C240.937 32.123 240.937 37.9162 240.937 43.7093C240.937 54.6692 254.263 60.0709 261.866 52.2423ZM296.036 56V21.0848H289.06V56H296.036ZM309.252 55.9217V36.6636C309.252 31.8099 313.172 27.9739 317.953 27.9739C322.813 27.9739 326.733 31.8099 326.733 36.6636V55.9217H333.709V36.6636C333.709 27.9739 326.654 20.9283 317.953 20.9283C309.33 20.9283 302.276 27.9739 302.276 36.6636V55.9217H309.252ZM341.947 46.2927C350.178 62.7326 375.027 56.8612 375.027 38.5424C375.027 26.9562 375.027 15.37 375.027 3.78381H368.05C368.05 10.6729 368.05 17.6403 368.05 24.5294C353.313 13.5695 333.716 29.8528 341.947 46.2927ZM347.121 38.5424C347.121 32.7493 351.746 28.0522 357.546 28.0522C363.347 28.0522 368.05 32.7493 368.05 38.5424C368.05 44.2573 363.347 48.9544 357.546 48.9544C351.746 48.9544 347.121 44.2573 347.121 38.5424Z" fill="white"/>
    <path d="M261.484 12.745V0.0285123H258.916V12.745H261.484ZM272.925 3.6781C273.53 3.07933 274.136 2.48057 274.742 1.88181C270.703 -2.10991 263.78 0.712808 263.78 6.35825C263.78 12.0322 270.703 14.8549 274.742 10.8632C274.136 10.2644 273.53 9.66569 272.925 9.06692C270.501 11.4619 266.347 9.75122 266.347 6.35825C266.347 2.96528 270.501 1.28305 272.925 3.6781ZM289.876 6.38678C289.876 2.87975 287.02 0.0285123 283.472 0.0285123C279.923 0.0285123 277.039 2.87975 277.039 6.38678C277.039 9.89378 279.923 12.7165 283.472 12.7165C287.02 12.7165 289.876 9.89378 289.876 6.38678ZM279.606 6.38678C279.606 4.27684 281.337 2.56611 283.472 2.56611C285.578 2.56611 287.308 4.27684 287.308 6.38678C287.308 8.49668 285.578 10.1789 283.472 10.1789C281.337 10.1789 279.606 8.49668 279.606 6.38678ZM294.752 0.0285123C293.887 0.0285123 293.05 0.0285123 292.185 0.0285123C292.185 2.16694 292.185 4.27684 292.185 6.38678C292.185 8.49668 292.185 10.6066 292.185 12.745C293.05 12.745 293.887 12.745 294.752 12.745C294.752 10.6066 294.752 8.49668 294.752 6.38678C294.752 4.27684 296.483 2.56611 298.618 2.56611C298.618 1.73925 298.618 0.883883 298.618 0.0285123C297.118 0.0285123 295.935 0.427684 294.752 1.31157C294.752 0.883883 294.752 0.456196 294.752 0.0285123ZM309.937 0V7.01405C309.937 8.7818 308.494 10.1789 306.706 10.1789C304.946 10.1789 303.504 8.7818 303.504 7.01405V0H300.936V7.01405C300.936 10.1789 303.533 12.745 306.706 12.745C309.908 12.745 312.504 10.1789 312.504 7.01405V0H309.937ZM322.517 1.36859C319.719 -1.45413 314.815 0.513223 314.815 4.47643C314.815 6.61487 314.815 10.6066 314.815 12.7165C315.68 12.7165 316.517 12.7165 317.382 12.7165C317.382 10.6066 317.382 6.61487 317.382 4.47643C317.382 3.44998 318.247 2.59462 319.315 2.59462C320.382 2.59462 321.248 3.44998 321.248 4.47643C321.248 6.61487 321.248 10.6066 321.248 12.7165C321.68 12.7165 322.084 12.7165 322.517 12.7165C322.95 12.7165 323.383 12.7165 323.815 12.7165C323.815 10.6066 323.815 6.61487 323.815 4.47643C323.815 3.44998 324.68 2.59462 325.748 2.59462C326.786 2.59462 327.652 3.44998 327.652 4.47643C327.652 6.61487 327.652 10.6066 327.652 12.7165C328.517 12.7165 329.383 12.7165 330.219 12.7165C330.219 10.6066 330.219 6.61487 330.219 4.47643C330.219 0.513223 325.344 -1.45413 322.517 1.36859Z" fill="white"/>
    <path d="M227.698 1.34611C224.899 -1.48931 219.992 0.486889 219.992 4.46791C219.992 6.61596 219.992 10.6256 219.992 12.745C220.858 12.745 221.695 12.745 222.561 12.745C222.561 10.6256 222.561 6.61596 222.561 4.46791C222.561 3.43685 223.427 2.57765 224.494 2.57765C225.562 2.57765 226.428 3.43685 226.428 4.46791C226.428 6.61596 226.428 10.6256 226.428 12.745C226.861 12.745 227.265 12.745 227.698 12.745C228.131 12.745 228.564 12.745 228.997 12.745C228.997 10.6256 228.997 6.61596 228.997 4.46791C228.997 3.43685 229.862 2.57765 230.93 2.57765C231.969 2.57765 232.835 3.43685 232.835 4.46791C232.835 6.61596 232.835 10.6256 232.835 12.745C233.701 12.745 234.567 12.745 235.403 12.745C235.403 10.6256 235.403 6.61596 235.403 4.46791C235.403 0.486889 230.526 -1.48931 227.698 1.34611ZM250.843 2.54901H256.615V0H250.843C248.708 0 246.976 1.71843 246.976 3.83782C246.976 5.69947 248.304 7.24606 250.093 7.58975C250.324 7.64703 250.583 7.64703 250.843 7.64703H253.672C254.393 7.64703 254.97 8.21984 254.97 8.93584C254.97 9.62322 254.393 10.196 253.672 10.196H247.899V12.745H253.672C255.807 12.745 257.539 11.0552 257.539 8.93584C257.539 7.0742 256.211 5.52761 254.422 5.18392C254.191 5.12667 253.931 5.09801 253.672 5.09801H250.843C250.122 5.09801 249.545 4.5252 249.545 3.83782C249.545 3.12182 250.122 2.54901 250.843 2.54901Z" fill="#B71C1C"/>
    <path d="M244.605 0V7.01405C244.605 8.7818 243.145 10.1789 241.334 10.1789C239.553 10.1789 238.092 8.7818 238.092 7.01405V0H235.493V7.01405C235.493 10.1789 238.121 12.745 241.334 12.745C244.576 12.745 247.205 10.1789 247.205 7.01405V0H244.605Z" fill="white"/>
    <defs>
        <linearGradient id="paint0_linear" x1="276.5" y1="134.792" x2="276.5" y2="272.184" gradientUnits="userSpaceOnUse">
            <stop stop-color="white"/>
            <stop offset="1" stop-color="white" stop-opacity="0"/>
        </linearGradient>
    </defs>
</svg>
